M48
; DRILL file {KiCad (7.0.0-rc1-156-g4c5a344629)} date Tue Mar  7 17:57:53 2023
; FORMAT={-:-/ absolute / metric / decimal}
; #@! TF.CreationDate,2023-03-07T17:57:53+10:30
; #@! TF.GenerationSoftware,Kicad,Pcbnew,(7.0.0-rc1-156-g4c5a344629)
; #@! TF.FileFunction,Plated,1,2,PTH
FMAT,2
METRIC
; #@! TA.AperFunction,Plated,PTH,ViaDrill
T1C0.400
; #@! TA.AperFunction,Plated,PTH,ComponentDrill
T2C0.400
; #@! TA.AperFunction,Plated,PTH,ComponentDrill
T3C1.100
; #@! TA.AperFunction,Plated,PTH,ComponentDrill
T4C1.200
; #@! TA.AperFunction,Plated,PTH,ComponentDrill
T5C2.200
%
G90
G05
T1
X75.5Y-9.917
X101.9Y-28.967
X102.3Y-45.967
T2
X31.85Y-5.667
X31.85Y-73.667
X32.333Y-4.5
X32.333Y-6.833
X32.333Y-72.5
X32.333Y-74.833
X33.5Y-4.017
X33.5Y-7.317
X33.5Y-72.017
X33.5Y-75.317
X34.667Y-4.5
X34.667Y-6.833
X34.667Y-72.5
X34.667Y-74.833
X35.15Y-5.667
X35.15Y-73.667
X103.85Y-5.667
X103.85Y-73.667
X104.333Y-4.5
X104.333Y-6.833
X104.333Y-72.5
X104.333Y-74.833
X105.5Y-4.017
X105.5Y-7.317
X105.5Y-72.017
X105.5Y-75.317
X106.667Y-4.5
X106.667Y-6.833
X106.667Y-72.5
X106.667Y-74.833
X107.15Y-5.667
X107.15Y-73.667
T3
X88.88Y-8.697
X88.88Y-11.237
X88.88Y-13.777
X88.88Y-16.317
X88.88Y-18.857
X88.88Y-21.397
X88.88Y-23.937
X88.88Y-26.477
X88.88Y-29.017
X88.88Y-31.557
X88.88Y-34.097
X88.88Y-36.637
X104.12Y-8.697
X104.12Y-11.237
X104.12Y-13.777
X104.12Y-16.317
X104.12Y-18.857
X104.12Y-21.397
X104.12Y-23.937
X104.12Y-26.477
X104.12Y-29.017
X104.12Y-31.557
X104.12Y-34.097
X104.12Y-36.637
T4
X37.5Y-17.967
X37.5Y-34.967
X37.5Y-51.967
X37.5Y-68.967
X42.5Y-20.067
X42.5Y-37.067
X42.5Y-54.067
X42.5Y-71.067
X55.5Y-17.967
X55.5Y-34.967
X55.5Y-51.967
X55.5Y-68.967
X60.5Y-20.067
X60.5Y-37.067
X60.5Y-54.067
X60.5Y-71.067
X73.5Y-17.967
X73.5Y-34.967
X73.5Y-51.967
X73.5Y-68.967
X78.5Y-20.067
X78.5Y-37.067
X78.5Y-54.067
X78.5Y-71.067
X91.5Y-17.967
X91.5Y-34.967
X91.5Y-51.967
X91.5Y-68.967
X96.5Y-20.067
X96.5Y-37.067
X96.5Y-54.067
X96.5Y-71.067
T5
X33.5Y-5.667
X33.5Y-73.667
X105.5Y-5.667
X105.5Y-73.667
T0
M30
