%TF.GenerationSoftware,KiCad,Pcbnew,(7.0.0-rc1-156-g4c5a344629)*%
%TF.CreationDate,2023-03-07T17:57:53+10:30*%
%TF.ProjectId,4x4,3478342e-6b69-4636-9164-5f7063625858,rev?*%
%TF.SameCoordinates,Original*%
%TF.FileFunction,Drillmap*%
%TF.FilePolarity,Positive*%
%FSLAX45Y45*%
G04 Gerber Fmt 4.5, Leading zero omitted, Abs format (unit mm)*
G04 Created by KiCad (PCBNEW (7.0.0-rc1-156-g4c5a344629)) date 2023-03-07 17:57:53*
%MOMM*%
%LPD*%
G01*
G04 APERTURE LIST*
%ADD10C,0.200000*%
%ADD11C,0.040000*%
%ADD12C,0.110000*%
%ADD13C,0.120000*%
%ADD14C,0.220000*%
G04 APERTURE END LIST*
D10*
X3350001Y-7586667D02*
X10550001Y-7586667D01*
X10550001Y-346667D02*
X3350001Y-346667D01*
X10550001Y-7586671D02*
G75*
G03*
X10770001Y-7366667I-1J220001D01*
G01*
X3130003Y-7366667D02*
G75*
G03*
X3350001Y-7586667I219997J-3D01*
G01*
X3130001Y-566667D02*
X3130001Y-7366667D01*
X10770001Y-7366667D02*
X10770001Y-566667D01*
X10770003Y-566667D02*
G75*
G03*
X10550001Y-346667I-220003J-3D01*
G01*
X3350001Y-346667D02*
G75*
G03*
X3130001Y-566667I0J-220000D01*
G01*
D11*
X7530001Y-971667D02*
X7570001Y-1011667D01*
X7570001Y-971667D02*
X7530001Y-1011667D01*
X10170001Y-2876668D02*
X10210001Y-2916668D01*
X10210001Y-2876668D02*
X10170001Y-2916668D01*
X10210001Y-4576668D02*
X10250001Y-4616668D01*
X10250001Y-4576668D02*
X10210001Y-4616668D01*
X3205001Y-566667D02*
G75*
G03*
X3205001Y-566667I-20000J0D01*
G01*
X3205001Y-7366668D02*
G75*
G03*
X3205001Y-7366668I-20000J0D01*
G01*
X3253328Y-449994D02*
G75*
G03*
X3253328Y-449994I-20000J0D01*
G01*
X3253328Y-683339D02*
G75*
G03*
X3253328Y-683339I-20000J0D01*
G01*
X3253328Y-7249996D02*
G75*
G03*
X3253328Y-7249996I-20000J0D01*
G01*
X3253328Y-7483341D02*
G75*
G03*
X3253328Y-7483341I-20000J0D01*
G01*
X3370001Y-401667D02*
G75*
G03*
X3370001Y-401667I-20000J0D01*
G01*
X3370001Y-731667D02*
G75*
G03*
X3370001Y-731667I-20000J0D01*
G01*
X3370001Y-7201668D02*
G75*
G03*
X3370001Y-7201668I-20000J0D01*
G01*
X3370001Y-7531668D02*
G75*
G03*
X3370001Y-7531668I-20000J0D01*
G01*
X3486674Y-449994D02*
G75*
G03*
X3486674Y-449994I-20000J0D01*
G01*
X3486674Y-683339D02*
G75*
G03*
X3486674Y-683339I-20000J0D01*
G01*
X3486674Y-7249996D02*
G75*
G03*
X3486674Y-7249996I-20000J0D01*
G01*
X3486674Y-7483341D02*
G75*
G03*
X3486674Y-7483341I-20000J0D01*
G01*
X3535001Y-566667D02*
G75*
G03*
X3535001Y-566667I-20000J0D01*
G01*
X3535001Y-7366668D02*
G75*
G03*
X3535001Y-7366668I-20000J0D01*
G01*
X10405001Y-566667D02*
G75*
G03*
X10405001Y-566667I-20000J0D01*
G01*
X10405001Y-7366668D02*
G75*
G03*
X10405001Y-7366668I-20000J0D01*
G01*
X10453328Y-449994D02*
G75*
G03*
X10453328Y-449994I-20000J0D01*
G01*
X10453328Y-683339D02*
G75*
G03*
X10453328Y-683339I-20000J0D01*
G01*
X10453328Y-7249996D02*
G75*
G03*
X10453328Y-7249996I-20000J0D01*
G01*
X10453328Y-7483341D02*
G75*
G03*
X10453328Y-7483341I-20000J0D01*
G01*
X10570001Y-401667D02*
G75*
G03*
X10570001Y-401667I-20000J0D01*
G01*
X10570001Y-731667D02*
G75*
G03*
X10570001Y-731667I-20000J0D01*
G01*
X10570001Y-7201668D02*
G75*
G03*
X10570001Y-7201668I-20000J0D01*
G01*
X10570001Y-7531668D02*
G75*
G03*
X10570001Y-7531668I-20000J0D01*
G01*
X10686674Y-449994D02*
G75*
G03*
X10686674Y-449994I-20000J0D01*
G01*
X10686674Y-683339D02*
G75*
G03*
X10686674Y-683339I-20000J0D01*
G01*
X10686674Y-7249996D02*
G75*
G03*
X10686674Y-7249996I-20000J0D01*
G01*
X10686674Y-7483341D02*
G75*
G03*
X10686674Y-7483341I-20000J0D01*
G01*
X10735001Y-566667D02*
G75*
G03*
X10735001Y-566667I-20000J0D01*
G01*
X10735001Y-7366668D02*
G75*
G03*
X10735001Y-7366668I-20000J0D01*
G01*
D12*
X8888001Y-814667D02*
X8888001Y-924667D01*
X8833001Y-869667D02*
X8943001Y-869667D01*
X8888001Y-1068667D02*
X8888001Y-1178667D01*
X8833001Y-1123667D02*
X8943001Y-1123667D01*
X8888001Y-1322667D02*
X8888001Y-1432667D01*
X8833001Y-1377667D02*
X8943001Y-1377667D01*
X8888001Y-1576667D02*
X8888001Y-1686667D01*
X8833001Y-1631667D02*
X8943001Y-1631667D01*
X8888001Y-1830667D02*
X8888001Y-1940667D01*
X8833001Y-1885667D02*
X8943001Y-1885667D01*
X8888001Y-2084667D02*
X8888001Y-2194667D01*
X8833001Y-2139667D02*
X8943001Y-2139667D01*
X8888001Y-2338667D02*
X8888001Y-2448667D01*
X8833001Y-2393667D02*
X8943001Y-2393667D01*
X8888001Y-2592667D02*
X8888001Y-2702667D01*
X8833001Y-2647667D02*
X8943001Y-2647667D01*
X8888001Y-2846667D02*
X8888001Y-2956667D01*
X8833001Y-2901667D02*
X8943001Y-2901667D01*
X8888001Y-3100667D02*
X8888001Y-3210667D01*
X8833001Y-3155667D02*
X8943001Y-3155667D01*
X8888001Y-3354667D02*
X8888001Y-3464667D01*
X8833001Y-3409667D02*
X8943001Y-3409667D01*
X8888001Y-3608667D02*
X8888001Y-3718667D01*
X8833001Y-3663667D02*
X8943001Y-3663667D01*
X10412001Y-814667D02*
X10412001Y-924667D01*
X10357001Y-869667D02*
X10467001Y-869667D01*
X10412001Y-1068667D02*
X10412001Y-1178667D01*
X10357001Y-1123667D02*
X10467001Y-1123667D01*
X10412001Y-1322667D02*
X10412001Y-1432667D01*
X10357001Y-1377667D02*
X10467001Y-1377667D01*
X10412001Y-1576667D02*
X10412001Y-1686667D01*
X10357001Y-1631667D02*
X10467001Y-1631667D01*
X10412001Y-1830667D02*
X10412001Y-1940667D01*
X10357001Y-1885667D02*
X10467001Y-1885667D01*
X10412001Y-2084667D02*
X10412001Y-2194667D01*
X10357001Y-2139667D02*
X10467001Y-2139667D01*
X10412001Y-2338667D02*
X10412001Y-2448667D01*
X10357001Y-2393667D02*
X10467001Y-2393667D01*
X10412001Y-2592667D02*
X10412001Y-2702667D01*
X10357001Y-2647667D02*
X10467001Y-2647667D01*
X10412001Y-2846667D02*
X10412001Y-2956667D01*
X10357001Y-2901667D02*
X10467001Y-2901667D01*
X10412001Y-3100667D02*
X10412001Y-3210667D01*
X10357001Y-3155667D02*
X10467001Y-3155667D01*
X10412001Y-3354667D02*
X10412001Y-3464667D01*
X10357001Y-3409667D02*
X10467001Y-3409667D01*
X10412001Y-3608667D02*
X10412001Y-3718667D01*
X10357001Y-3663667D02*
X10467001Y-3663667D01*
D13*
X3792428Y-1839094D02*
X3792428Y-1754240D01*
X3707574Y-1754240D01*
X3707574Y-1839094D01*
X3792428Y-1839094D01*
X3792428Y-3539094D02*
X3792428Y-3454241D01*
X3707574Y-3454241D01*
X3707574Y-3539094D01*
X3792428Y-3539094D01*
X3792428Y-5239095D02*
X3792428Y-5154241D01*
X3707574Y-5154241D01*
X3707574Y-5239095D01*
X3792428Y-5239095D01*
X3792428Y-6939095D02*
X3792428Y-6854241D01*
X3707574Y-6854241D01*
X3707574Y-6939095D01*
X3792428Y-6939095D01*
X4292428Y-2049094D02*
X4292428Y-1964240D01*
X4207574Y-1964240D01*
X4207574Y-2049094D01*
X4292428Y-2049094D01*
X4292428Y-3749094D02*
X4292428Y-3664241D01*
X4207574Y-3664241D01*
X4207574Y-3749094D01*
X4292428Y-3749094D01*
X4292428Y-5449095D02*
X4292428Y-5364241D01*
X4207574Y-5364241D01*
X4207574Y-5449095D01*
X4292428Y-5449095D01*
X4292428Y-7149095D02*
X4292428Y-7064241D01*
X4207574Y-7064241D01*
X4207574Y-7149095D01*
X4292428Y-7149095D01*
X5592428Y-1839094D02*
X5592428Y-1754240D01*
X5507574Y-1754240D01*
X5507574Y-1839094D01*
X5592428Y-1839094D01*
X5592428Y-3539094D02*
X5592428Y-3454241D01*
X5507574Y-3454241D01*
X5507574Y-3539094D01*
X5592428Y-3539094D01*
X5592428Y-5239095D02*
X5592428Y-5154241D01*
X5507574Y-5154241D01*
X5507574Y-5239095D01*
X5592428Y-5239095D01*
X5592428Y-6939095D02*
X5592428Y-6854241D01*
X5507574Y-6854241D01*
X5507574Y-6939095D01*
X5592428Y-6939095D01*
X6092428Y-2049094D02*
X6092428Y-1964240D01*
X6007574Y-1964240D01*
X6007574Y-2049094D01*
X6092428Y-2049094D01*
X6092428Y-3749094D02*
X6092428Y-3664241D01*
X6007574Y-3664241D01*
X6007574Y-3749094D01*
X6092428Y-3749094D01*
X6092428Y-5449095D02*
X6092428Y-5364241D01*
X6007574Y-5364241D01*
X6007574Y-5449095D01*
X6092428Y-5449095D01*
X6092428Y-7149095D02*
X6092428Y-7064241D01*
X6007574Y-7064241D01*
X6007574Y-7149095D01*
X6092428Y-7149095D01*
X7392428Y-1839094D02*
X7392428Y-1754240D01*
X7307574Y-1754240D01*
X7307574Y-1839094D01*
X7392428Y-1839094D01*
X7392428Y-3539094D02*
X7392428Y-3454241D01*
X7307574Y-3454241D01*
X7307574Y-3539094D01*
X7392428Y-3539094D01*
X7392428Y-5239095D02*
X7392428Y-5154241D01*
X7307574Y-5154241D01*
X7307574Y-5239095D01*
X7392428Y-5239095D01*
X7392428Y-6939095D02*
X7392428Y-6854241D01*
X7307574Y-6854241D01*
X7307574Y-6939095D01*
X7392428Y-6939095D01*
X7892428Y-2049094D02*
X7892428Y-1964240D01*
X7807574Y-1964240D01*
X7807574Y-2049094D01*
X7892428Y-2049094D01*
X7892428Y-3749094D02*
X7892428Y-3664241D01*
X7807574Y-3664241D01*
X7807574Y-3749094D01*
X7892428Y-3749094D01*
X7892428Y-5449095D02*
X7892428Y-5364241D01*
X7807574Y-5364241D01*
X7807574Y-5449095D01*
X7892428Y-5449095D01*
X7892428Y-7149095D02*
X7892428Y-7064241D01*
X7807574Y-7064241D01*
X7807574Y-7149095D01*
X7892428Y-7149095D01*
X9192428Y-1839094D02*
X9192428Y-1754240D01*
X9107574Y-1754240D01*
X9107574Y-1839094D01*
X9192428Y-1839094D01*
X9192428Y-3539094D02*
X9192428Y-3454241D01*
X9107574Y-3454241D01*
X9107574Y-3539094D01*
X9192428Y-3539094D01*
X9192428Y-5239095D02*
X9192428Y-5154241D01*
X9107574Y-5154241D01*
X9107574Y-5239095D01*
X9192428Y-5239095D01*
X9192428Y-6939095D02*
X9192428Y-6854241D01*
X9107574Y-6854241D01*
X9107574Y-6939095D01*
X9192428Y-6939095D01*
X9692428Y-2049094D02*
X9692428Y-1964240D01*
X9607574Y-1964240D01*
X9607574Y-2049094D01*
X9692428Y-2049094D01*
X9692428Y-3749094D02*
X9692428Y-3664241D01*
X9607574Y-3664241D01*
X9607574Y-3749094D01*
X9692428Y-3749094D01*
X9692428Y-5449095D02*
X9692428Y-5364241D01*
X9607574Y-5364241D01*
X9607574Y-5449095D01*
X9692428Y-5449095D01*
X9692428Y-7149095D02*
X9692428Y-7064241D01*
X9607574Y-7064241D01*
X9607574Y-7149095D01*
X9692428Y-7149095D01*
D14*
X3350001Y-676667D02*
X3460001Y-566667D01*
X3350001Y-456667D01*
X3240001Y-566667D01*
X3350001Y-676667D01*
X3350001Y-7476668D02*
X3460001Y-7366668D01*
X3350001Y-7256668D01*
X3240001Y-7366668D01*
X3350001Y-7476668D01*
X10550001Y-676667D02*
X10660001Y-566667D01*
X10550001Y-456667D01*
X10440001Y-566667D01*
X10550001Y-676667D01*
X10550001Y-7476668D02*
X10660001Y-7366668D01*
X10550001Y-7256668D01*
X10440001Y-7366668D01*
X10550001Y-7476668D01*
D10*
X3367620Y-7890143D02*
X3367620Y-7690143D01*
X3367620Y-7690143D02*
X3415239Y-7690143D01*
X3415239Y-7690143D02*
X3443810Y-7699667D01*
X3443810Y-7699667D02*
X3462858Y-7718715D01*
X3462858Y-7718715D02*
X3472382Y-7737762D01*
X3472382Y-7737762D02*
X3481906Y-7775857D01*
X3481906Y-7775857D02*
X3481906Y-7804429D01*
X3481906Y-7804429D02*
X3472382Y-7842524D01*
X3472382Y-7842524D02*
X3462858Y-7861572D01*
X3462858Y-7861572D02*
X3443810Y-7880619D01*
X3443810Y-7880619D02*
X3415239Y-7890143D01*
X3415239Y-7890143D02*
X3367620Y-7890143D01*
X3567620Y-7890143D02*
X3567620Y-7756810D01*
X3567620Y-7794905D02*
X3577144Y-7775857D01*
X3577144Y-7775857D02*
X3586668Y-7766334D01*
X3586668Y-7766334D02*
X3605715Y-7756810D01*
X3605715Y-7756810D02*
X3624763Y-7756810D01*
X3691429Y-7890143D02*
X3691429Y-7756810D01*
X3691429Y-7690143D02*
X3681906Y-7699667D01*
X3681906Y-7699667D02*
X3691429Y-7709191D01*
X3691429Y-7709191D02*
X3700953Y-7699667D01*
X3700953Y-7699667D02*
X3691429Y-7690143D01*
X3691429Y-7690143D02*
X3691429Y-7709191D01*
X3815239Y-7890143D02*
X3796191Y-7880619D01*
X3796191Y-7880619D02*
X3786668Y-7861572D01*
X3786668Y-7861572D02*
X3786668Y-7690143D01*
X3920001Y-7890143D02*
X3900953Y-7880619D01*
X3900953Y-7880619D02*
X3891429Y-7861572D01*
X3891429Y-7861572D02*
X3891429Y-7690143D01*
X4116191Y-7890143D02*
X4116191Y-7690143D01*
X4116191Y-7690143D02*
X4182858Y-7833000D01*
X4182858Y-7833000D02*
X4249525Y-7690143D01*
X4249525Y-7690143D02*
X4249525Y-7890143D01*
X4430477Y-7890143D02*
X4430477Y-7785381D01*
X4430477Y-7785381D02*
X4420953Y-7766334D01*
X4420953Y-7766334D02*
X4401906Y-7756810D01*
X4401906Y-7756810D02*
X4363810Y-7756810D01*
X4363810Y-7756810D02*
X4344763Y-7766334D01*
X4430477Y-7880619D02*
X4411430Y-7890143D01*
X4411430Y-7890143D02*
X4363810Y-7890143D01*
X4363810Y-7890143D02*
X4344763Y-7880619D01*
X4344763Y-7880619D02*
X4335239Y-7861572D01*
X4335239Y-7861572D02*
X4335239Y-7842524D01*
X4335239Y-7842524D02*
X4344763Y-7823476D01*
X4344763Y-7823476D02*
X4363810Y-7813953D01*
X4363810Y-7813953D02*
X4411430Y-7813953D01*
X4411430Y-7813953D02*
X4430477Y-7804429D01*
X4525715Y-7756810D02*
X4525715Y-7956810D01*
X4525715Y-7766334D02*
X4544763Y-7756810D01*
X4544763Y-7756810D02*
X4582858Y-7756810D01*
X4582858Y-7756810D02*
X4601906Y-7766334D01*
X4601906Y-7766334D02*
X4611430Y-7775857D01*
X4611430Y-7775857D02*
X4620953Y-7794905D01*
X4620953Y-7794905D02*
X4620953Y-7852048D01*
X4620953Y-7852048D02*
X4611430Y-7871095D01*
X4611430Y-7871095D02*
X4601906Y-7880619D01*
X4601906Y-7880619D02*
X4582858Y-7890143D01*
X4582858Y-7890143D02*
X4544763Y-7890143D01*
X4544763Y-7890143D02*
X4525715Y-7880619D01*
X4706668Y-7871095D02*
X4716191Y-7880619D01*
X4716191Y-7880619D02*
X4706668Y-7890143D01*
X4706668Y-7890143D02*
X4697144Y-7880619D01*
X4697144Y-7880619D02*
X4706668Y-7871095D01*
X4706668Y-7871095D02*
X4706668Y-7890143D01*
X4706668Y-7766334D02*
X4716191Y-7775857D01*
X4716191Y-7775857D02*
X4706668Y-7785381D01*
X4706668Y-7785381D02*
X4697144Y-7775857D01*
X4697144Y-7775857D02*
X4706668Y-7766334D01*
X4706668Y-7766334D02*
X4706668Y-7785381D01*
D11*
X3080001Y-8216667D02*
X3120001Y-8256667D01*
X3120001Y-8216667D02*
X3080001Y-8256667D01*
D10*
X3405715Y-8110143D02*
X3424763Y-8110143D01*
X3424763Y-8110143D02*
X3443810Y-8119667D01*
X3443810Y-8119667D02*
X3453334Y-8129191D01*
X3453334Y-8129191D02*
X3462858Y-8148238D01*
X3462858Y-8148238D02*
X3472382Y-8186334D01*
X3472382Y-8186334D02*
X3472382Y-8233953D01*
X3472382Y-8233953D02*
X3462858Y-8272048D01*
X3462858Y-8272048D02*
X3453334Y-8291095D01*
X3453334Y-8291095D02*
X3443810Y-8300619D01*
X3443810Y-8300619D02*
X3424763Y-8310143D01*
X3424763Y-8310143D02*
X3405715Y-8310143D01*
X3405715Y-8310143D02*
X3386668Y-8300619D01*
X3386668Y-8300619D02*
X3377144Y-8291095D01*
X3377144Y-8291095D02*
X3367620Y-8272048D01*
X3367620Y-8272048D02*
X3358096Y-8233953D01*
X3358096Y-8233953D02*
X3358096Y-8186334D01*
X3358096Y-8186334D02*
X3367620Y-8148238D01*
X3367620Y-8148238D02*
X3377144Y-8129191D01*
X3377144Y-8129191D02*
X3386668Y-8119667D01*
X3386668Y-8119667D02*
X3405715Y-8110143D01*
X3558096Y-8291095D02*
X3567620Y-8300619D01*
X3567620Y-8300619D02*
X3558096Y-8310143D01*
X3558096Y-8310143D02*
X3548572Y-8300619D01*
X3548572Y-8300619D02*
X3558096Y-8291095D01*
X3558096Y-8291095D02*
X3558096Y-8310143D01*
X3739049Y-8176810D02*
X3739049Y-8310143D01*
X3691429Y-8100619D02*
X3643810Y-8243476D01*
X3643810Y-8243476D02*
X3767620Y-8243476D01*
X3881906Y-8110143D02*
X3900953Y-8110143D01*
X3900953Y-8110143D02*
X3920001Y-8119667D01*
X3920001Y-8119667D02*
X3929525Y-8129191D01*
X3929525Y-8129191D02*
X3939049Y-8148238D01*
X3939049Y-8148238D02*
X3948572Y-8186334D01*
X3948572Y-8186334D02*
X3948572Y-8233953D01*
X3948572Y-8233953D02*
X3939049Y-8272048D01*
X3939049Y-8272048D02*
X3929525Y-8291095D01*
X3929525Y-8291095D02*
X3920001Y-8300619D01*
X3920001Y-8300619D02*
X3900953Y-8310143D01*
X3900953Y-8310143D02*
X3881906Y-8310143D01*
X3881906Y-8310143D02*
X3862858Y-8300619D01*
X3862858Y-8300619D02*
X3853334Y-8291095D01*
X3853334Y-8291095D02*
X3843810Y-8272048D01*
X3843810Y-8272048D02*
X3834287Y-8233953D01*
X3834287Y-8233953D02*
X3834287Y-8186334D01*
X3834287Y-8186334D02*
X3843810Y-8148238D01*
X3843810Y-8148238D02*
X3853334Y-8129191D01*
X3853334Y-8129191D02*
X3862858Y-8119667D01*
X3862858Y-8119667D02*
X3881906Y-8110143D01*
X4072382Y-8110143D02*
X4091430Y-8110143D01*
X4091430Y-8110143D02*
X4110477Y-8119667D01*
X4110477Y-8119667D02*
X4120001Y-8129191D01*
X4120001Y-8129191D02*
X4129525Y-8148238D01*
X4129525Y-8148238D02*
X4139049Y-8186334D01*
X4139049Y-8186334D02*
X4139049Y-8233953D01*
X4139049Y-8233953D02*
X4129525Y-8272048D01*
X4129525Y-8272048D02*
X4120001Y-8291095D01*
X4120001Y-8291095D02*
X4110477Y-8300619D01*
X4110477Y-8300619D02*
X4091430Y-8310143D01*
X4091430Y-8310143D02*
X4072382Y-8310143D01*
X4072382Y-8310143D02*
X4053334Y-8300619D01*
X4053334Y-8300619D02*
X4043810Y-8291095D01*
X4043810Y-8291095D02*
X4034287Y-8272048D01*
X4034287Y-8272048D02*
X4024763Y-8233953D01*
X4024763Y-8233953D02*
X4024763Y-8186334D01*
X4024763Y-8186334D02*
X4034287Y-8148238D01*
X4034287Y-8148238D02*
X4043810Y-8129191D01*
X4043810Y-8129191D02*
X4053334Y-8119667D01*
X4053334Y-8119667D02*
X4072382Y-8110143D01*
X4224763Y-8310143D02*
X4224763Y-8176810D01*
X4224763Y-8195857D02*
X4234287Y-8186334D01*
X4234287Y-8186334D02*
X4253334Y-8176810D01*
X4253334Y-8176810D02*
X4281906Y-8176810D01*
X4281906Y-8176810D02*
X4300953Y-8186334D01*
X4300953Y-8186334D02*
X4310477Y-8205381D01*
X4310477Y-8205381D02*
X4310477Y-8310143D01*
X4310477Y-8205381D02*
X4320001Y-8186334D01*
X4320001Y-8186334D02*
X4339049Y-8176810D01*
X4339049Y-8176810D02*
X4367620Y-8176810D01*
X4367620Y-8176810D02*
X4386668Y-8186334D01*
X4386668Y-8186334D02*
X4396192Y-8205381D01*
X4396192Y-8205381D02*
X4396192Y-8310143D01*
X4491430Y-8310143D02*
X4491430Y-8176810D01*
X4491430Y-8195857D02*
X4500953Y-8186334D01*
X4500953Y-8186334D02*
X4520001Y-8176810D01*
X4520001Y-8176810D02*
X4548573Y-8176810D01*
X4548573Y-8176810D02*
X4567620Y-8186334D01*
X4567620Y-8186334D02*
X4577144Y-8205381D01*
X4577144Y-8205381D02*
X4577144Y-8310143D01*
X4577144Y-8205381D02*
X4586668Y-8186334D01*
X4586668Y-8186334D02*
X4605715Y-8176810D01*
X4605715Y-8176810D02*
X4634287Y-8176810D01*
X4634287Y-8176810D02*
X4653334Y-8186334D01*
X4653334Y-8186334D02*
X4662858Y-8205381D01*
X4662858Y-8205381D02*
X4662858Y-8310143D01*
X5020953Y-8100619D02*
X4849525Y-8357762D01*
X5245715Y-8110143D02*
X5264763Y-8110143D01*
X5264763Y-8110143D02*
X5283811Y-8119667D01*
X5283811Y-8119667D02*
X5293334Y-8129191D01*
X5293334Y-8129191D02*
X5302858Y-8148238D01*
X5302858Y-8148238D02*
X5312382Y-8186334D01*
X5312382Y-8186334D02*
X5312382Y-8233953D01*
X5312382Y-8233953D02*
X5302858Y-8272048D01*
X5302858Y-8272048D02*
X5293334Y-8291095D01*
X5293334Y-8291095D02*
X5283811Y-8300619D01*
X5283811Y-8300619D02*
X5264763Y-8310143D01*
X5264763Y-8310143D02*
X5245715Y-8310143D01*
X5245715Y-8310143D02*
X5226668Y-8300619D01*
X5226668Y-8300619D02*
X5217144Y-8291095D01*
X5217144Y-8291095D02*
X5207620Y-8272048D01*
X5207620Y-8272048D02*
X5198096Y-8233953D01*
X5198096Y-8233953D02*
X5198096Y-8186334D01*
X5198096Y-8186334D02*
X5207620Y-8148238D01*
X5207620Y-8148238D02*
X5217144Y-8129191D01*
X5217144Y-8129191D02*
X5226668Y-8119667D01*
X5226668Y-8119667D02*
X5245715Y-8110143D01*
X5398096Y-8291095D02*
X5407620Y-8300619D01*
X5407620Y-8300619D02*
X5398096Y-8310143D01*
X5398096Y-8310143D02*
X5388573Y-8300619D01*
X5388573Y-8300619D02*
X5398096Y-8291095D01*
X5398096Y-8291095D02*
X5398096Y-8310143D01*
X5531430Y-8110143D02*
X5550477Y-8110143D01*
X5550477Y-8110143D02*
X5569525Y-8119667D01*
X5569525Y-8119667D02*
X5579049Y-8129191D01*
X5579049Y-8129191D02*
X5588573Y-8148238D01*
X5588573Y-8148238D02*
X5598096Y-8186334D01*
X5598096Y-8186334D02*
X5598096Y-8233953D01*
X5598096Y-8233953D02*
X5588573Y-8272048D01*
X5588573Y-8272048D02*
X5579049Y-8291095D01*
X5579049Y-8291095D02*
X5569525Y-8300619D01*
X5569525Y-8300619D02*
X5550477Y-8310143D01*
X5550477Y-8310143D02*
X5531430Y-8310143D01*
X5531430Y-8310143D02*
X5512382Y-8300619D01*
X5512382Y-8300619D02*
X5502858Y-8291095D01*
X5502858Y-8291095D02*
X5493334Y-8272048D01*
X5493334Y-8272048D02*
X5483811Y-8233953D01*
X5483811Y-8233953D02*
X5483811Y-8186334D01*
X5483811Y-8186334D02*
X5493334Y-8148238D01*
X5493334Y-8148238D02*
X5502858Y-8129191D01*
X5502858Y-8129191D02*
X5512382Y-8119667D01*
X5512382Y-8119667D02*
X5531430Y-8110143D01*
X5788572Y-8310143D02*
X5674287Y-8310143D01*
X5731430Y-8310143D02*
X5731430Y-8110143D01*
X5731430Y-8110143D02*
X5712382Y-8138715D01*
X5712382Y-8138715D02*
X5693334Y-8157762D01*
X5693334Y-8157762D02*
X5674287Y-8167286D01*
X5969525Y-8110143D02*
X5874287Y-8110143D01*
X5874287Y-8110143D02*
X5864763Y-8205381D01*
X5864763Y-8205381D02*
X5874287Y-8195857D01*
X5874287Y-8195857D02*
X5893334Y-8186334D01*
X5893334Y-8186334D02*
X5940953Y-8186334D01*
X5940953Y-8186334D02*
X5960001Y-8195857D01*
X5960001Y-8195857D02*
X5969525Y-8205381D01*
X5969525Y-8205381D02*
X5979049Y-8224429D01*
X5979049Y-8224429D02*
X5979049Y-8272048D01*
X5979049Y-8272048D02*
X5969525Y-8291095D01*
X5969525Y-8291095D02*
X5960001Y-8300619D01*
X5960001Y-8300619D02*
X5940953Y-8310143D01*
X5940953Y-8310143D02*
X5893334Y-8310143D01*
X5893334Y-8310143D02*
X5874287Y-8300619D01*
X5874287Y-8300619D02*
X5864763Y-8291095D01*
X6045715Y-8110143D02*
X6179049Y-8110143D01*
X6179049Y-8110143D02*
X6093334Y-8310143D01*
X6245715Y-8110143D02*
X6245715Y-8148238D01*
X6321906Y-8110143D02*
X6321906Y-8148238D01*
X6584763Y-8386334D02*
X6575239Y-8376810D01*
X6575239Y-8376810D02*
X6556192Y-8348238D01*
X6556192Y-8348238D02*
X6546668Y-8329191D01*
X6546668Y-8329191D02*
X6537144Y-8300619D01*
X6537144Y-8300619D02*
X6527620Y-8253000D01*
X6527620Y-8253000D02*
X6527620Y-8214905D01*
X6527620Y-8214905D02*
X6537144Y-8167286D01*
X6537144Y-8167286D02*
X6546668Y-8138715D01*
X6546668Y-8138715D02*
X6556192Y-8119667D01*
X6556192Y-8119667D02*
X6575239Y-8091095D01*
X6575239Y-8091095D02*
X6584763Y-8081572D01*
X6641906Y-8110143D02*
X6765715Y-8110143D01*
X6765715Y-8110143D02*
X6699049Y-8186334D01*
X6699049Y-8186334D02*
X6727620Y-8186334D01*
X6727620Y-8186334D02*
X6746668Y-8195857D01*
X6746668Y-8195857D02*
X6756192Y-8205381D01*
X6756192Y-8205381D02*
X6765715Y-8224429D01*
X6765715Y-8224429D02*
X6765715Y-8272048D01*
X6765715Y-8272048D02*
X6756192Y-8291095D01*
X6756192Y-8291095D02*
X6746668Y-8300619D01*
X6746668Y-8300619D02*
X6727620Y-8310143D01*
X6727620Y-8310143D02*
X6670477Y-8310143D01*
X6670477Y-8310143D02*
X6651430Y-8300619D01*
X6651430Y-8300619D02*
X6641906Y-8291095D01*
X6971430Y-8310143D02*
X6971430Y-8110143D01*
X7057144Y-8310143D02*
X7057144Y-8205381D01*
X7057144Y-8205381D02*
X7047620Y-8186334D01*
X7047620Y-8186334D02*
X7028573Y-8176810D01*
X7028573Y-8176810D02*
X7000001Y-8176810D01*
X7000001Y-8176810D02*
X6980953Y-8186334D01*
X6980953Y-8186334D02*
X6971430Y-8195857D01*
X7180953Y-8310143D02*
X7161906Y-8300619D01*
X7161906Y-8300619D02*
X7152382Y-8291095D01*
X7152382Y-8291095D02*
X7142858Y-8272048D01*
X7142858Y-8272048D02*
X7142858Y-8214905D01*
X7142858Y-8214905D02*
X7152382Y-8195857D01*
X7152382Y-8195857D02*
X7161906Y-8186334D01*
X7161906Y-8186334D02*
X7180953Y-8176810D01*
X7180953Y-8176810D02*
X7209525Y-8176810D01*
X7209525Y-8176810D02*
X7228573Y-8186334D01*
X7228573Y-8186334D02*
X7238096Y-8195857D01*
X7238096Y-8195857D02*
X7247620Y-8214905D01*
X7247620Y-8214905D02*
X7247620Y-8272048D01*
X7247620Y-8272048D02*
X7238096Y-8291095D01*
X7238096Y-8291095D02*
X7228573Y-8300619D01*
X7228573Y-8300619D02*
X7209525Y-8310143D01*
X7209525Y-8310143D02*
X7180953Y-8310143D01*
X7361906Y-8310143D02*
X7342858Y-8300619D01*
X7342858Y-8300619D02*
X7333334Y-8281572D01*
X7333334Y-8281572D02*
X7333334Y-8110143D01*
X7514287Y-8300619D02*
X7495239Y-8310143D01*
X7495239Y-8310143D02*
X7457144Y-8310143D01*
X7457144Y-8310143D02*
X7438096Y-8300619D01*
X7438096Y-8300619D02*
X7428573Y-8281572D01*
X7428573Y-8281572D02*
X7428573Y-8205381D01*
X7428573Y-8205381D02*
X7438096Y-8186334D01*
X7438096Y-8186334D02*
X7457144Y-8176810D01*
X7457144Y-8176810D02*
X7495239Y-8176810D01*
X7495239Y-8176810D02*
X7514287Y-8186334D01*
X7514287Y-8186334D02*
X7523811Y-8205381D01*
X7523811Y-8205381D02*
X7523811Y-8224429D01*
X7523811Y-8224429D02*
X7428573Y-8243476D01*
X7600001Y-8300619D02*
X7619049Y-8310143D01*
X7619049Y-8310143D02*
X7657144Y-8310143D01*
X7657144Y-8310143D02*
X7676192Y-8300619D01*
X7676192Y-8300619D02*
X7685715Y-8281572D01*
X7685715Y-8281572D02*
X7685715Y-8272048D01*
X7685715Y-8272048D02*
X7676192Y-8253000D01*
X7676192Y-8253000D02*
X7657144Y-8243476D01*
X7657144Y-8243476D02*
X7628573Y-8243476D01*
X7628573Y-8243476D02*
X7609525Y-8233953D01*
X7609525Y-8233953D02*
X7600001Y-8214905D01*
X7600001Y-8214905D02*
X7600001Y-8205381D01*
X7600001Y-8205381D02*
X7609525Y-8186334D01*
X7609525Y-8186334D02*
X7628573Y-8176810D01*
X7628573Y-8176810D02*
X7657144Y-8176810D01*
X7657144Y-8176810D02*
X7676192Y-8186334D01*
X7752382Y-8386334D02*
X7761906Y-8376810D01*
X7761906Y-8376810D02*
X7780954Y-8348238D01*
X7780954Y-8348238D02*
X7790477Y-8329191D01*
X7790477Y-8329191D02*
X7800001Y-8300619D01*
X7800001Y-8300619D02*
X7809525Y-8253000D01*
X7809525Y-8253000D02*
X7809525Y-8214905D01*
X7809525Y-8214905D02*
X7800001Y-8167286D01*
X7800001Y-8167286D02*
X7790477Y-8138715D01*
X7790477Y-8138715D02*
X7780954Y-8119667D01*
X7780954Y-8119667D02*
X7761906Y-8091095D01*
X7761906Y-8091095D02*
X7752382Y-8081572D01*
D11*
X3120001Y-8500667D02*
G75*
G03*
X3120001Y-8500667I-20000J0D01*
G01*
D10*
X3405715Y-8374143D02*
X3424763Y-8374143D01*
X3424763Y-8374143D02*
X3443810Y-8383667D01*
X3443810Y-8383667D02*
X3453334Y-8393191D01*
X3453334Y-8393191D02*
X3462858Y-8412238D01*
X3462858Y-8412238D02*
X3472382Y-8450334D01*
X3472382Y-8450334D02*
X3472382Y-8497953D01*
X3472382Y-8497953D02*
X3462858Y-8536048D01*
X3462858Y-8536048D02*
X3453334Y-8555096D01*
X3453334Y-8555096D02*
X3443810Y-8564619D01*
X3443810Y-8564619D02*
X3424763Y-8574143D01*
X3424763Y-8574143D02*
X3405715Y-8574143D01*
X3405715Y-8574143D02*
X3386668Y-8564619D01*
X3386668Y-8564619D02*
X3377144Y-8555096D01*
X3377144Y-8555096D02*
X3367620Y-8536048D01*
X3367620Y-8536048D02*
X3358096Y-8497953D01*
X3358096Y-8497953D02*
X3358096Y-8450334D01*
X3358096Y-8450334D02*
X3367620Y-8412238D01*
X3367620Y-8412238D02*
X3377144Y-8393191D01*
X3377144Y-8393191D02*
X3386668Y-8383667D01*
X3386668Y-8383667D02*
X3405715Y-8374143D01*
X3558096Y-8555096D02*
X3567620Y-8564619D01*
X3567620Y-8564619D02*
X3558096Y-8574143D01*
X3558096Y-8574143D02*
X3548572Y-8564619D01*
X3548572Y-8564619D02*
X3558096Y-8555096D01*
X3558096Y-8555096D02*
X3558096Y-8574143D01*
X3739049Y-8440810D02*
X3739049Y-8574143D01*
X3691429Y-8364619D02*
X3643810Y-8507477D01*
X3643810Y-8507477D02*
X3767620Y-8507477D01*
X3881906Y-8374143D02*
X3900953Y-8374143D01*
X3900953Y-8374143D02*
X3920001Y-8383667D01*
X3920001Y-8383667D02*
X3929525Y-8393191D01*
X3929525Y-8393191D02*
X3939049Y-8412238D01*
X3939049Y-8412238D02*
X3948572Y-8450334D01*
X3948572Y-8450334D02*
X3948572Y-8497953D01*
X3948572Y-8497953D02*
X3939049Y-8536048D01*
X3939049Y-8536048D02*
X3929525Y-8555096D01*
X3929525Y-8555096D02*
X3920001Y-8564619D01*
X3920001Y-8564619D02*
X3900953Y-8574143D01*
X3900953Y-8574143D02*
X3881906Y-8574143D01*
X3881906Y-8574143D02*
X3862858Y-8564619D01*
X3862858Y-8564619D02*
X3853334Y-8555096D01*
X3853334Y-8555096D02*
X3843810Y-8536048D01*
X3843810Y-8536048D02*
X3834287Y-8497953D01*
X3834287Y-8497953D02*
X3834287Y-8450334D01*
X3834287Y-8450334D02*
X3843810Y-8412238D01*
X3843810Y-8412238D02*
X3853334Y-8393191D01*
X3853334Y-8393191D02*
X3862858Y-8383667D01*
X3862858Y-8383667D02*
X3881906Y-8374143D01*
X4072382Y-8374143D02*
X4091430Y-8374143D01*
X4091430Y-8374143D02*
X4110477Y-8383667D01*
X4110477Y-8383667D02*
X4120001Y-8393191D01*
X4120001Y-8393191D02*
X4129525Y-8412238D01*
X4129525Y-8412238D02*
X4139049Y-8450334D01*
X4139049Y-8450334D02*
X4139049Y-8497953D01*
X4139049Y-8497953D02*
X4129525Y-8536048D01*
X4129525Y-8536048D02*
X4120001Y-8555096D01*
X4120001Y-8555096D02*
X4110477Y-8564619D01*
X4110477Y-8564619D02*
X4091430Y-8574143D01*
X4091430Y-8574143D02*
X4072382Y-8574143D01*
X4072382Y-8574143D02*
X4053334Y-8564619D01*
X4053334Y-8564619D02*
X4043810Y-8555096D01*
X4043810Y-8555096D02*
X4034287Y-8536048D01*
X4034287Y-8536048D02*
X4024763Y-8497953D01*
X4024763Y-8497953D02*
X4024763Y-8450334D01*
X4024763Y-8450334D02*
X4034287Y-8412238D01*
X4034287Y-8412238D02*
X4043810Y-8393191D01*
X4043810Y-8393191D02*
X4053334Y-8383667D01*
X4053334Y-8383667D02*
X4072382Y-8374143D01*
X4224763Y-8574143D02*
X4224763Y-8440810D01*
X4224763Y-8459857D02*
X4234287Y-8450334D01*
X4234287Y-8450334D02*
X4253334Y-8440810D01*
X4253334Y-8440810D02*
X4281906Y-8440810D01*
X4281906Y-8440810D02*
X4300953Y-8450334D01*
X4300953Y-8450334D02*
X4310477Y-8469381D01*
X4310477Y-8469381D02*
X4310477Y-8574143D01*
X4310477Y-8469381D02*
X4320001Y-8450334D01*
X4320001Y-8450334D02*
X4339049Y-8440810D01*
X4339049Y-8440810D02*
X4367620Y-8440810D01*
X4367620Y-8440810D02*
X4386668Y-8450334D01*
X4386668Y-8450334D02*
X4396192Y-8469381D01*
X4396192Y-8469381D02*
X4396192Y-8574143D01*
X4491430Y-8574143D02*
X4491430Y-8440810D01*
X4491430Y-8459857D02*
X4500953Y-8450334D01*
X4500953Y-8450334D02*
X4520001Y-8440810D01*
X4520001Y-8440810D02*
X4548573Y-8440810D01*
X4548573Y-8440810D02*
X4567620Y-8450334D01*
X4567620Y-8450334D02*
X4577144Y-8469381D01*
X4577144Y-8469381D02*
X4577144Y-8574143D01*
X4577144Y-8469381D02*
X4586668Y-8450334D01*
X4586668Y-8450334D02*
X4605715Y-8440810D01*
X4605715Y-8440810D02*
X4634287Y-8440810D01*
X4634287Y-8440810D02*
X4653334Y-8450334D01*
X4653334Y-8450334D02*
X4662858Y-8469381D01*
X4662858Y-8469381D02*
X4662858Y-8574143D01*
X5020953Y-8364619D02*
X4849525Y-8621762D01*
X5245715Y-8374143D02*
X5264763Y-8374143D01*
X5264763Y-8374143D02*
X5283811Y-8383667D01*
X5283811Y-8383667D02*
X5293334Y-8393191D01*
X5293334Y-8393191D02*
X5302858Y-8412238D01*
X5302858Y-8412238D02*
X5312382Y-8450334D01*
X5312382Y-8450334D02*
X5312382Y-8497953D01*
X5312382Y-8497953D02*
X5302858Y-8536048D01*
X5302858Y-8536048D02*
X5293334Y-8555096D01*
X5293334Y-8555096D02*
X5283811Y-8564619D01*
X5283811Y-8564619D02*
X5264763Y-8574143D01*
X5264763Y-8574143D02*
X5245715Y-8574143D01*
X5245715Y-8574143D02*
X5226668Y-8564619D01*
X5226668Y-8564619D02*
X5217144Y-8555096D01*
X5217144Y-8555096D02*
X5207620Y-8536048D01*
X5207620Y-8536048D02*
X5198096Y-8497953D01*
X5198096Y-8497953D02*
X5198096Y-8450334D01*
X5198096Y-8450334D02*
X5207620Y-8412238D01*
X5207620Y-8412238D02*
X5217144Y-8393191D01*
X5217144Y-8393191D02*
X5226668Y-8383667D01*
X5226668Y-8383667D02*
X5245715Y-8374143D01*
X5398096Y-8555096D02*
X5407620Y-8564619D01*
X5407620Y-8564619D02*
X5398096Y-8574143D01*
X5398096Y-8574143D02*
X5388573Y-8564619D01*
X5388573Y-8564619D02*
X5398096Y-8555096D01*
X5398096Y-8555096D02*
X5398096Y-8574143D01*
X5531430Y-8374143D02*
X5550477Y-8374143D01*
X5550477Y-8374143D02*
X5569525Y-8383667D01*
X5569525Y-8383667D02*
X5579049Y-8393191D01*
X5579049Y-8393191D02*
X5588573Y-8412238D01*
X5588573Y-8412238D02*
X5598096Y-8450334D01*
X5598096Y-8450334D02*
X5598096Y-8497953D01*
X5598096Y-8497953D02*
X5588573Y-8536048D01*
X5588573Y-8536048D02*
X5579049Y-8555096D01*
X5579049Y-8555096D02*
X5569525Y-8564619D01*
X5569525Y-8564619D02*
X5550477Y-8574143D01*
X5550477Y-8574143D02*
X5531430Y-8574143D01*
X5531430Y-8574143D02*
X5512382Y-8564619D01*
X5512382Y-8564619D02*
X5502858Y-8555096D01*
X5502858Y-8555096D02*
X5493334Y-8536048D01*
X5493334Y-8536048D02*
X5483811Y-8497953D01*
X5483811Y-8497953D02*
X5483811Y-8450334D01*
X5483811Y-8450334D02*
X5493334Y-8412238D01*
X5493334Y-8412238D02*
X5502858Y-8393191D01*
X5502858Y-8393191D02*
X5512382Y-8383667D01*
X5512382Y-8383667D02*
X5531430Y-8374143D01*
X5788572Y-8574143D02*
X5674287Y-8574143D01*
X5731430Y-8574143D02*
X5731430Y-8374143D01*
X5731430Y-8374143D02*
X5712382Y-8402715D01*
X5712382Y-8402715D02*
X5693334Y-8421762D01*
X5693334Y-8421762D02*
X5674287Y-8431286D01*
X5969525Y-8374143D02*
X5874287Y-8374143D01*
X5874287Y-8374143D02*
X5864763Y-8469381D01*
X5864763Y-8469381D02*
X5874287Y-8459857D01*
X5874287Y-8459857D02*
X5893334Y-8450334D01*
X5893334Y-8450334D02*
X5940953Y-8450334D01*
X5940953Y-8450334D02*
X5960001Y-8459857D01*
X5960001Y-8459857D02*
X5969525Y-8469381D01*
X5969525Y-8469381D02*
X5979049Y-8488429D01*
X5979049Y-8488429D02*
X5979049Y-8536048D01*
X5979049Y-8536048D02*
X5969525Y-8555096D01*
X5969525Y-8555096D02*
X5960001Y-8564619D01*
X5960001Y-8564619D02*
X5940953Y-8574143D01*
X5940953Y-8574143D02*
X5893334Y-8574143D01*
X5893334Y-8574143D02*
X5874287Y-8564619D01*
X5874287Y-8564619D02*
X5864763Y-8555096D01*
X6045715Y-8374143D02*
X6179049Y-8374143D01*
X6179049Y-8374143D02*
X6093334Y-8574143D01*
X6245715Y-8374143D02*
X6245715Y-8412238D01*
X6321906Y-8374143D02*
X6321906Y-8412238D01*
X6584763Y-8650334D02*
X6575239Y-8640810D01*
X6575239Y-8640810D02*
X6556192Y-8612238D01*
X6556192Y-8612238D02*
X6546668Y-8593191D01*
X6546668Y-8593191D02*
X6537144Y-8564619D01*
X6537144Y-8564619D02*
X6527620Y-8517000D01*
X6527620Y-8517000D02*
X6527620Y-8478905D01*
X6527620Y-8478905D02*
X6537144Y-8431286D01*
X6537144Y-8431286D02*
X6546668Y-8402715D01*
X6546668Y-8402715D02*
X6556192Y-8383667D01*
X6556192Y-8383667D02*
X6575239Y-8355095D01*
X6575239Y-8355095D02*
X6584763Y-8345572D01*
X6641906Y-8374143D02*
X6765715Y-8374143D01*
X6765715Y-8374143D02*
X6699049Y-8450334D01*
X6699049Y-8450334D02*
X6727620Y-8450334D01*
X6727620Y-8450334D02*
X6746668Y-8459857D01*
X6746668Y-8459857D02*
X6756192Y-8469381D01*
X6756192Y-8469381D02*
X6765715Y-8488429D01*
X6765715Y-8488429D02*
X6765715Y-8536048D01*
X6765715Y-8536048D02*
X6756192Y-8555096D01*
X6756192Y-8555096D02*
X6746668Y-8564619D01*
X6746668Y-8564619D02*
X6727620Y-8574143D01*
X6727620Y-8574143D02*
X6670477Y-8574143D01*
X6670477Y-8574143D02*
X6651430Y-8564619D01*
X6651430Y-8564619D02*
X6641906Y-8555096D01*
X6841906Y-8393191D02*
X6851430Y-8383667D01*
X6851430Y-8383667D02*
X6870477Y-8374143D01*
X6870477Y-8374143D02*
X6918096Y-8374143D01*
X6918096Y-8374143D02*
X6937144Y-8383667D01*
X6937144Y-8383667D02*
X6946668Y-8393191D01*
X6946668Y-8393191D02*
X6956192Y-8412238D01*
X6956192Y-8412238D02*
X6956192Y-8431286D01*
X6956192Y-8431286D02*
X6946668Y-8459857D01*
X6946668Y-8459857D02*
X6832382Y-8574143D01*
X6832382Y-8574143D02*
X6956192Y-8574143D01*
X7161906Y-8574143D02*
X7161906Y-8374143D01*
X7247620Y-8574143D02*
X7247620Y-8469381D01*
X7247620Y-8469381D02*
X7238096Y-8450334D01*
X7238096Y-8450334D02*
X7219049Y-8440810D01*
X7219049Y-8440810D02*
X7190477Y-8440810D01*
X7190477Y-8440810D02*
X7171430Y-8450334D01*
X7171430Y-8450334D02*
X7161906Y-8459857D01*
X7371430Y-8574143D02*
X7352382Y-8564619D01*
X7352382Y-8564619D02*
X7342858Y-8555096D01*
X7342858Y-8555096D02*
X7333334Y-8536048D01*
X7333334Y-8536048D02*
X7333334Y-8478905D01*
X7333334Y-8478905D02*
X7342858Y-8459857D01*
X7342858Y-8459857D02*
X7352382Y-8450334D01*
X7352382Y-8450334D02*
X7371430Y-8440810D01*
X7371430Y-8440810D02*
X7400001Y-8440810D01*
X7400001Y-8440810D02*
X7419049Y-8450334D01*
X7419049Y-8450334D02*
X7428573Y-8459857D01*
X7428573Y-8459857D02*
X7438096Y-8478905D01*
X7438096Y-8478905D02*
X7438096Y-8536048D01*
X7438096Y-8536048D02*
X7428573Y-8555096D01*
X7428573Y-8555096D02*
X7419049Y-8564619D01*
X7419049Y-8564619D02*
X7400001Y-8574143D01*
X7400001Y-8574143D02*
X7371430Y-8574143D01*
X7552382Y-8574143D02*
X7533334Y-8564619D01*
X7533334Y-8564619D02*
X7523811Y-8545572D01*
X7523811Y-8545572D02*
X7523811Y-8374143D01*
X7704763Y-8564619D02*
X7685715Y-8574143D01*
X7685715Y-8574143D02*
X7647620Y-8574143D01*
X7647620Y-8574143D02*
X7628573Y-8564619D01*
X7628573Y-8564619D02*
X7619049Y-8545572D01*
X7619049Y-8545572D02*
X7619049Y-8469381D01*
X7619049Y-8469381D02*
X7628573Y-8450334D01*
X7628573Y-8450334D02*
X7647620Y-8440810D01*
X7647620Y-8440810D02*
X7685715Y-8440810D01*
X7685715Y-8440810D02*
X7704763Y-8450334D01*
X7704763Y-8450334D02*
X7714287Y-8469381D01*
X7714287Y-8469381D02*
X7714287Y-8488429D01*
X7714287Y-8488429D02*
X7619049Y-8507477D01*
X7790477Y-8564619D02*
X7809525Y-8574143D01*
X7809525Y-8574143D02*
X7847620Y-8574143D01*
X7847620Y-8574143D02*
X7866668Y-8564619D01*
X7866668Y-8564619D02*
X7876192Y-8545572D01*
X7876192Y-8545572D02*
X7876192Y-8536048D01*
X7876192Y-8536048D02*
X7866668Y-8517000D01*
X7866668Y-8517000D02*
X7847620Y-8507477D01*
X7847620Y-8507477D02*
X7819049Y-8507477D01*
X7819049Y-8507477D02*
X7800001Y-8497953D01*
X7800001Y-8497953D02*
X7790477Y-8478905D01*
X7790477Y-8478905D02*
X7790477Y-8469381D01*
X7790477Y-8469381D02*
X7800001Y-8450334D01*
X7800001Y-8450334D02*
X7819049Y-8440810D01*
X7819049Y-8440810D02*
X7847620Y-8440810D01*
X7847620Y-8440810D02*
X7866668Y-8450334D01*
X7942858Y-8650334D02*
X7952382Y-8640810D01*
X7952382Y-8640810D02*
X7971430Y-8612238D01*
X7971430Y-8612238D02*
X7980954Y-8593191D01*
X7980954Y-8593191D02*
X7990477Y-8564619D01*
X7990477Y-8564619D02*
X8000001Y-8517000D01*
X8000001Y-8517000D02*
X8000001Y-8478905D01*
X8000001Y-8478905D02*
X7990477Y-8431286D01*
X7990477Y-8431286D02*
X7980954Y-8402715D01*
X7980954Y-8402715D02*
X7971430Y-8383667D01*
X7971430Y-8383667D02*
X7952382Y-8355095D01*
X7952382Y-8355095D02*
X7942858Y-8345572D01*
D12*
X3065001Y-8709667D02*
X3065001Y-8819667D01*
X3010001Y-8764667D02*
X3120001Y-8764667D01*
D10*
X3472382Y-8838143D02*
X3358096Y-8838143D01*
X3415239Y-8838143D02*
X3415239Y-8638143D01*
X3415239Y-8638143D02*
X3396191Y-8666715D01*
X3396191Y-8666715D02*
X3377144Y-8685762D01*
X3377144Y-8685762D02*
X3358096Y-8695286D01*
X3558096Y-8819096D02*
X3567620Y-8828619D01*
X3567620Y-8828619D02*
X3558096Y-8838143D01*
X3558096Y-8838143D02*
X3548572Y-8828619D01*
X3548572Y-8828619D02*
X3558096Y-8819096D01*
X3558096Y-8819096D02*
X3558096Y-8838143D01*
X3758096Y-8838143D02*
X3643810Y-8838143D01*
X3700953Y-8838143D02*
X3700953Y-8638143D01*
X3700953Y-8638143D02*
X3681906Y-8666715D01*
X3681906Y-8666715D02*
X3662858Y-8685762D01*
X3662858Y-8685762D02*
X3643810Y-8695286D01*
X3881906Y-8638143D02*
X3900953Y-8638143D01*
X3900953Y-8638143D02*
X3920001Y-8647667D01*
X3920001Y-8647667D02*
X3929525Y-8657191D01*
X3929525Y-8657191D02*
X3939049Y-8676238D01*
X3939049Y-8676238D02*
X3948572Y-8714334D01*
X3948572Y-8714334D02*
X3948572Y-8761953D01*
X3948572Y-8761953D02*
X3939049Y-8800048D01*
X3939049Y-8800048D02*
X3929525Y-8819096D01*
X3929525Y-8819096D02*
X3920001Y-8828619D01*
X3920001Y-8828619D02*
X3900953Y-8838143D01*
X3900953Y-8838143D02*
X3881906Y-8838143D01*
X3881906Y-8838143D02*
X3862858Y-8828619D01*
X3862858Y-8828619D02*
X3853334Y-8819096D01*
X3853334Y-8819096D02*
X3843810Y-8800048D01*
X3843810Y-8800048D02*
X3834287Y-8761953D01*
X3834287Y-8761953D02*
X3834287Y-8714334D01*
X3834287Y-8714334D02*
X3843810Y-8676238D01*
X3843810Y-8676238D02*
X3853334Y-8657191D01*
X3853334Y-8657191D02*
X3862858Y-8647667D01*
X3862858Y-8647667D02*
X3881906Y-8638143D01*
X4072382Y-8638143D02*
X4091430Y-8638143D01*
X4091430Y-8638143D02*
X4110477Y-8647667D01*
X4110477Y-8647667D02*
X4120001Y-8657191D01*
X4120001Y-8657191D02*
X4129525Y-8676238D01*
X4129525Y-8676238D02*
X4139049Y-8714334D01*
X4139049Y-8714334D02*
X4139049Y-8761953D01*
X4139049Y-8761953D02*
X4129525Y-8800048D01*
X4129525Y-8800048D02*
X4120001Y-8819096D01*
X4120001Y-8819096D02*
X4110477Y-8828619D01*
X4110477Y-8828619D02*
X4091430Y-8838143D01*
X4091430Y-8838143D02*
X4072382Y-8838143D01*
X4072382Y-8838143D02*
X4053334Y-8828619D01*
X4053334Y-8828619D02*
X4043810Y-8819096D01*
X4043810Y-8819096D02*
X4034287Y-8800048D01*
X4034287Y-8800048D02*
X4024763Y-8761953D01*
X4024763Y-8761953D02*
X4024763Y-8714334D01*
X4024763Y-8714334D02*
X4034287Y-8676238D01*
X4034287Y-8676238D02*
X4043810Y-8657191D01*
X4043810Y-8657191D02*
X4053334Y-8647667D01*
X4053334Y-8647667D02*
X4072382Y-8638143D01*
X4224763Y-8838143D02*
X4224763Y-8704810D01*
X4224763Y-8723857D02*
X4234287Y-8714334D01*
X4234287Y-8714334D02*
X4253334Y-8704810D01*
X4253334Y-8704810D02*
X4281906Y-8704810D01*
X4281906Y-8704810D02*
X4300953Y-8714334D01*
X4300953Y-8714334D02*
X4310477Y-8733381D01*
X4310477Y-8733381D02*
X4310477Y-8838143D01*
X4310477Y-8733381D02*
X4320001Y-8714334D01*
X4320001Y-8714334D02*
X4339049Y-8704810D01*
X4339049Y-8704810D02*
X4367620Y-8704810D01*
X4367620Y-8704810D02*
X4386668Y-8714334D01*
X4386668Y-8714334D02*
X4396192Y-8733381D01*
X4396192Y-8733381D02*
X4396192Y-8838143D01*
X4491430Y-8838143D02*
X4491430Y-8704810D01*
X4491430Y-8723857D02*
X4500953Y-8714334D01*
X4500953Y-8714334D02*
X4520001Y-8704810D01*
X4520001Y-8704810D02*
X4548573Y-8704810D01*
X4548573Y-8704810D02*
X4567620Y-8714334D01*
X4567620Y-8714334D02*
X4577144Y-8733381D01*
X4577144Y-8733381D02*
X4577144Y-8838143D01*
X4577144Y-8733381D02*
X4586668Y-8714334D01*
X4586668Y-8714334D02*
X4605715Y-8704810D01*
X4605715Y-8704810D02*
X4634287Y-8704810D01*
X4634287Y-8704810D02*
X4653334Y-8714334D01*
X4653334Y-8714334D02*
X4662858Y-8733381D01*
X4662858Y-8733381D02*
X4662858Y-8838143D01*
X5020953Y-8628619D02*
X4849525Y-8885762D01*
X5245715Y-8638143D02*
X5264763Y-8638143D01*
X5264763Y-8638143D02*
X5283811Y-8647667D01*
X5283811Y-8647667D02*
X5293334Y-8657191D01*
X5293334Y-8657191D02*
X5302858Y-8676238D01*
X5302858Y-8676238D02*
X5312382Y-8714334D01*
X5312382Y-8714334D02*
X5312382Y-8761953D01*
X5312382Y-8761953D02*
X5302858Y-8800048D01*
X5302858Y-8800048D02*
X5293334Y-8819096D01*
X5293334Y-8819096D02*
X5283811Y-8828619D01*
X5283811Y-8828619D02*
X5264763Y-8838143D01*
X5264763Y-8838143D02*
X5245715Y-8838143D01*
X5245715Y-8838143D02*
X5226668Y-8828619D01*
X5226668Y-8828619D02*
X5217144Y-8819096D01*
X5217144Y-8819096D02*
X5207620Y-8800048D01*
X5207620Y-8800048D02*
X5198096Y-8761953D01*
X5198096Y-8761953D02*
X5198096Y-8714334D01*
X5198096Y-8714334D02*
X5207620Y-8676238D01*
X5207620Y-8676238D02*
X5217144Y-8657191D01*
X5217144Y-8657191D02*
X5226668Y-8647667D01*
X5226668Y-8647667D02*
X5245715Y-8638143D01*
X5398096Y-8819096D02*
X5407620Y-8828619D01*
X5407620Y-8828619D02*
X5398096Y-8838143D01*
X5398096Y-8838143D02*
X5388573Y-8828619D01*
X5388573Y-8828619D02*
X5398096Y-8819096D01*
X5398096Y-8819096D02*
X5398096Y-8838143D01*
X5531430Y-8638143D02*
X5550477Y-8638143D01*
X5550477Y-8638143D02*
X5569525Y-8647667D01*
X5569525Y-8647667D02*
X5579049Y-8657191D01*
X5579049Y-8657191D02*
X5588573Y-8676238D01*
X5588573Y-8676238D02*
X5598096Y-8714334D01*
X5598096Y-8714334D02*
X5598096Y-8761953D01*
X5598096Y-8761953D02*
X5588573Y-8800048D01*
X5588573Y-8800048D02*
X5579049Y-8819096D01*
X5579049Y-8819096D02*
X5569525Y-8828619D01*
X5569525Y-8828619D02*
X5550477Y-8838143D01*
X5550477Y-8838143D02*
X5531430Y-8838143D01*
X5531430Y-8838143D02*
X5512382Y-8828619D01*
X5512382Y-8828619D02*
X5502858Y-8819096D01*
X5502858Y-8819096D02*
X5493334Y-8800048D01*
X5493334Y-8800048D02*
X5483811Y-8761953D01*
X5483811Y-8761953D02*
X5483811Y-8714334D01*
X5483811Y-8714334D02*
X5493334Y-8676238D01*
X5493334Y-8676238D02*
X5502858Y-8657191D01*
X5502858Y-8657191D02*
X5512382Y-8647667D01*
X5512382Y-8647667D02*
X5531430Y-8638143D01*
X5769525Y-8704810D02*
X5769525Y-8838143D01*
X5721906Y-8628619D02*
X5674287Y-8771477D01*
X5674287Y-8771477D02*
X5798096Y-8771477D01*
X5855239Y-8638143D02*
X5979049Y-8638143D01*
X5979049Y-8638143D02*
X5912382Y-8714334D01*
X5912382Y-8714334D02*
X5940953Y-8714334D01*
X5940953Y-8714334D02*
X5960001Y-8723857D01*
X5960001Y-8723857D02*
X5969525Y-8733381D01*
X5969525Y-8733381D02*
X5979049Y-8752429D01*
X5979049Y-8752429D02*
X5979049Y-8800048D01*
X5979049Y-8800048D02*
X5969525Y-8819096D01*
X5969525Y-8819096D02*
X5960001Y-8828619D01*
X5960001Y-8828619D02*
X5940953Y-8838143D01*
X5940953Y-8838143D02*
X5883811Y-8838143D01*
X5883811Y-8838143D02*
X5864763Y-8828619D01*
X5864763Y-8828619D02*
X5855239Y-8819096D01*
X6045715Y-8638143D02*
X6169525Y-8638143D01*
X6169525Y-8638143D02*
X6102858Y-8714334D01*
X6102858Y-8714334D02*
X6131430Y-8714334D01*
X6131430Y-8714334D02*
X6150477Y-8723857D01*
X6150477Y-8723857D02*
X6160001Y-8733381D01*
X6160001Y-8733381D02*
X6169525Y-8752429D01*
X6169525Y-8752429D02*
X6169525Y-8800048D01*
X6169525Y-8800048D02*
X6160001Y-8819096D01*
X6160001Y-8819096D02*
X6150477Y-8828619D01*
X6150477Y-8828619D02*
X6131430Y-8838143D01*
X6131430Y-8838143D02*
X6074287Y-8838143D01*
X6074287Y-8838143D02*
X6055239Y-8828619D01*
X6055239Y-8828619D02*
X6045715Y-8819096D01*
X6245715Y-8638143D02*
X6245715Y-8676238D01*
X6321906Y-8638143D02*
X6321906Y-8676238D01*
X6584763Y-8914334D02*
X6575239Y-8904810D01*
X6575239Y-8904810D02*
X6556192Y-8876238D01*
X6556192Y-8876238D02*
X6546668Y-8857191D01*
X6546668Y-8857191D02*
X6537144Y-8828619D01*
X6537144Y-8828619D02*
X6527620Y-8781000D01*
X6527620Y-8781000D02*
X6527620Y-8742905D01*
X6527620Y-8742905D02*
X6537144Y-8695286D01*
X6537144Y-8695286D02*
X6546668Y-8666715D01*
X6546668Y-8666715D02*
X6556192Y-8647667D01*
X6556192Y-8647667D02*
X6575239Y-8619096D01*
X6575239Y-8619096D02*
X6584763Y-8609572D01*
X6651430Y-8657191D02*
X6660953Y-8647667D01*
X6660953Y-8647667D02*
X6680001Y-8638143D01*
X6680001Y-8638143D02*
X6727620Y-8638143D01*
X6727620Y-8638143D02*
X6746668Y-8647667D01*
X6746668Y-8647667D02*
X6756192Y-8657191D01*
X6756192Y-8657191D02*
X6765715Y-8676238D01*
X6765715Y-8676238D02*
X6765715Y-8695286D01*
X6765715Y-8695286D02*
X6756192Y-8723857D01*
X6756192Y-8723857D02*
X6641906Y-8838143D01*
X6641906Y-8838143D02*
X6765715Y-8838143D01*
X6937144Y-8704810D02*
X6937144Y-8838143D01*
X6889525Y-8628619D02*
X6841906Y-8771477D01*
X6841906Y-8771477D02*
X6965715Y-8771477D01*
X7161906Y-8838143D02*
X7161906Y-8638143D01*
X7247620Y-8838143D02*
X7247620Y-8733381D01*
X7247620Y-8733381D02*
X7238096Y-8714334D01*
X7238096Y-8714334D02*
X7219049Y-8704810D01*
X7219049Y-8704810D02*
X7190477Y-8704810D01*
X7190477Y-8704810D02*
X7171430Y-8714334D01*
X7171430Y-8714334D02*
X7161906Y-8723857D01*
X7371430Y-8838143D02*
X7352382Y-8828619D01*
X7352382Y-8828619D02*
X7342858Y-8819096D01*
X7342858Y-8819096D02*
X7333334Y-8800048D01*
X7333334Y-8800048D02*
X7333334Y-8742905D01*
X7333334Y-8742905D02*
X7342858Y-8723857D01*
X7342858Y-8723857D02*
X7352382Y-8714334D01*
X7352382Y-8714334D02*
X7371430Y-8704810D01*
X7371430Y-8704810D02*
X7400001Y-8704810D01*
X7400001Y-8704810D02*
X7419049Y-8714334D01*
X7419049Y-8714334D02*
X7428573Y-8723857D01*
X7428573Y-8723857D02*
X7438096Y-8742905D01*
X7438096Y-8742905D02*
X7438096Y-8800048D01*
X7438096Y-8800048D02*
X7428573Y-8819096D01*
X7428573Y-8819096D02*
X7419049Y-8828619D01*
X7419049Y-8828619D02*
X7400001Y-8838143D01*
X7400001Y-8838143D02*
X7371430Y-8838143D01*
X7552382Y-8838143D02*
X7533334Y-8828619D01*
X7533334Y-8828619D02*
X7523811Y-8809572D01*
X7523811Y-8809572D02*
X7523811Y-8638143D01*
X7704763Y-8828619D02*
X7685715Y-8838143D01*
X7685715Y-8838143D02*
X7647620Y-8838143D01*
X7647620Y-8838143D02*
X7628573Y-8828619D01*
X7628573Y-8828619D02*
X7619049Y-8809572D01*
X7619049Y-8809572D02*
X7619049Y-8733381D01*
X7619049Y-8733381D02*
X7628573Y-8714334D01*
X7628573Y-8714334D02*
X7647620Y-8704810D01*
X7647620Y-8704810D02*
X7685715Y-8704810D01*
X7685715Y-8704810D02*
X7704763Y-8714334D01*
X7704763Y-8714334D02*
X7714287Y-8733381D01*
X7714287Y-8733381D02*
X7714287Y-8752429D01*
X7714287Y-8752429D02*
X7619049Y-8771477D01*
X7790477Y-8828619D02*
X7809525Y-8838143D01*
X7809525Y-8838143D02*
X7847620Y-8838143D01*
X7847620Y-8838143D02*
X7866668Y-8828619D01*
X7866668Y-8828619D02*
X7876192Y-8809572D01*
X7876192Y-8809572D02*
X7876192Y-8800048D01*
X7876192Y-8800048D02*
X7866668Y-8781000D01*
X7866668Y-8781000D02*
X7847620Y-8771477D01*
X7847620Y-8771477D02*
X7819049Y-8771477D01*
X7819049Y-8771477D02*
X7800001Y-8761953D01*
X7800001Y-8761953D02*
X7790477Y-8742905D01*
X7790477Y-8742905D02*
X7790477Y-8733381D01*
X7790477Y-8733381D02*
X7800001Y-8714334D01*
X7800001Y-8714334D02*
X7819049Y-8704810D01*
X7819049Y-8704810D02*
X7847620Y-8704810D01*
X7847620Y-8704810D02*
X7866668Y-8714334D01*
X7942858Y-8914334D02*
X7952382Y-8904810D01*
X7952382Y-8904810D02*
X7971430Y-8876238D01*
X7971430Y-8876238D02*
X7980954Y-8857191D01*
X7980954Y-8857191D02*
X7990477Y-8828619D01*
X7990477Y-8828619D02*
X8000001Y-8781000D01*
X8000001Y-8781000D02*
X8000001Y-8742905D01*
X8000001Y-8742905D02*
X7990477Y-8695286D01*
X7990477Y-8695286D02*
X7980954Y-8666715D01*
X7980954Y-8666715D02*
X7971430Y-8647667D01*
X7971430Y-8647667D02*
X7952382Y-8619096D01*
X7952382Y-8619096D02*
X7942858Y-8609572D01*
D13*
X3102428Y-9071094D02*
X3102428Y-8986240D01*
X3017574Y-8986240D01*
X3017574Y-9071094D01*
X3102428Y-9071094D01*
D10*
X3472382Y-9102143D02*
X3358096Y-9102143D01*
X3415239Y-9102143D02*
X3415239Y-8902143D01*
X3415239Y-8902143D02*
X3396191Y-8930715D01*
X3396191Y-8930715D02*
X3377144Y-8949762D01*
X3377144Y-8949762D02*
X3358096Y-8959286D01*
X3558096Y-9083096D02*
X3567620Y-9092619D01*
X3567620Y-9092619D02*
X3558096Y-9102143D01*
X3558096Y-9102143D02*
X3548572Y-9092619D01*
X3548572Y-9092619D02*
X3558096Y-9083096D01*
X3558096Y-9083096D02*
X3558096Y-9102143D01*
X3643810Y-8921191D02*
X3653334Y-8911667D01*
X3653334Y-8911667D02*
X3672382Y-8902143D01*
X3672382Y-8902143D02*
X3720001Y-8902143D01*
X3720001Y-8902143D02*
X3739049Y-8911667D01*
X3739049Y-8911667D02*
X3748572Y-8921191D01*
X3748572Y-8921191D02*
X3758096Y-8940238D01*
X3758096Y-8940238D02*
X3758096Y-8959286D01*
X3758096Y-8959286D02*
X3748572Y-8987857D01*
X3748572Y-8987857D02*
X3634287Y-9102143D01*
X3634287Y-9102143D02*
X3758096Y-9102143D01*
X3881906Y-8902143D02*
X3900953Y-8902143D01*
X3900953Y-8902143D02*
X3920001Y-8911667D01*
X3920001Y-8911667D02*
X3929525Y-8921191D01*
X3929525Y-8921191D02*
X3939049Y-8940238D01*
X3939049Y-8940238D02*
X3948572Y-8978334D01*
X3948572Y-8978334D02*
X3948572Y-9025953D01*
X3948572Y-9025953D02*
X3939049Y-9064048D01*
X3939049Y-9064048D02*
X3929525Y-9083096D01*
X3929525Y-9083096D02*
X3920001Y-9092619D01*
X3920001Y-9092619D02*
X3900953Y-9102143D01*
X3900953Y-9102143D02*
X3881906Y-9102143D01*
X3881906Y-9102143D02*
X3862858Y-9092619D01*
X3862858Y-9092619D02*
X3853334Y-9083096D01*
X3853334Y-9083096D02*
X3843810Y-9064048D01*
X3843810Y-9064048D02*
X3834287Y-9025953D01*
X3834287Y-9025953D02*
X3834287Y-8978334D01*
X3834287Y-8978334D02*
X3843810Y-8940238D01*
X3843810Y-8940238D02*
X3853334Y-8921191D01*
X3853334Y-8921191D02*
X3862858Y-8911667D01*
X3862858Y-8911667D02*
X3881906Y-8902143D01*
X4072382Y-8902143D02*
X4091430Y-8902143D01*
X4091430Y-8902143D02*
X4110477Y-8911667D01*
X4110477Y-8911667D02*
X4120001Y-8921191D01*
X4120001Y-8921191D02*
X4129525Y-8940238D01*
X4129525Y-8940238D02*
X4139049Y-8978334D01*
X4139049Y-8978334D02*
X4139049Y-9025953D01*
X4139049Y-9025953D02*
X4129525Y-9064048D01*
X4129525Y-9064048D02*
X4120001Y-9083096D01*
X4120001Y-9083096D02*
X4110477Y-9092619D01*
X4110477Y-9092619D02*
X4091430Y-9102143D01*
X4091430Y-9102143D02*
X4072382Y-9102143D01*
X4072382Y-9102143D02*
X4053334Y-9092619D01*
X4053334Y-9092619D02*
X4043810Y-9083096D01*
X4043810Y-9083096D02*
X4034287Y-9064048D01*
X4034287Y-9064048D02*
X4024763Y-9025953D01*
X4024763Y-9025953D02*
X4024763Y-8978334D01*
X4024763Y-8978334D02*
X4034287Y-8940238D01*
X4034287Y-8940238D02*
X4043810Y-8921191D01*
X4043810Y-8921191D02*
X4053334Y-8911667D01*
X4053334Y-8911667D02*
X4072382Y-8902143D01*
X4224763Y-9102143D02*
X4224763Y-8968810D01*
X4224763Y-8987857D02*
X4234287Y-8978334D01*
X4234287Y-8978334D02*
X4253334Y-8968810D01*
X4253334Y-8968810D02*
X4281906Y-8968810D01*
X4281906Y-8968810D02*
X4300953Y-8978334D01*
X4300953Y-8978334D02*
X4310477Y-8997381D01*
X4310477Y-8997381D02*
X4310477Y-9102143D01*
X4310477Y-8997381D02*
X4320001Y-8978334D01*
X4320001Y-8978334D02*
X4339049Y-8968810D01*
X4339049Y-8968810D02*
X4367620Y-8968810D01*
X4367620Y-8968810D02*
X4386668Y-8978334D01*
X4386668Y-8978334D02*
X4396192Y-8997381D01*
X4396192Y-8997381D02*
X4396192Y-9102143D01*
X4491430Y-9102143D02*
X4491430Y-8968810D01*
X4491430Y-8987857D02*
X4500953Y-8978334D01*
X4500953Y-8978334D02*
X4520001Y-8968810D01*
X4520001Y-8968810D02*
X4548573Y-8968810D01*
X4548573Y-8968810D02*
X4567620Y-8978334D01*
X4567620Y-8978334D02*
X4577144Y-8997381D01*
X4577144Y-8997381D02*
X4577144Y-9102143D01*
X4577144Y-8997381D02*
X4586668Y-8978334D01*
X4586668Y-8978334D02*
X4605715Y-8968810D01*
X4605715Y-8968810D02*
X4634287Y-8968810D01*
X4634287Y-8968810D02*
X4653334Y-8978334D01*
X4653334Y-8978334D02*
X4662858Y-8997381D01*
X4662858Y-8997381D02*
X4662858Y-9102143D01*
X5020953Y-8892619D02*
X4849525Y-9149762D01*
X5245715Y-8902143D02*
X5264763Y-8902143D01*
X5264763Y-8902143D02*
X5283811Y-8911667D01*
X5283811Y-8911667D02*
X5293334Y-8921191D01*
X5293334Y-8921191D02*
X5302858Y-8940238D01*
X5302858Y-8940238D02*
X5312382Y-8978334D01*
X5312382Y-8978334D02*
X5312382Y-9025953D01*
X5312382Y-9025953D02*
X5302858Y-9064048D01*
X5302858Y-9064048D02*
X5293334Y-9083096D01*
X5293334Y-9083096D02*
X5283811Y-9092619D01*
X5283811Y-9092619D02*
X5264763Y-9102143D01*
X5264763Y-9102143D02*
X5245715Y-9102143D01*
X5245715Y-9102143D02*
X5226668Y-9092619D01*
X5226668Y-9092619D02*
X5217144Y-9083096D01*
X5217144Y-9083096D02*
X5207620Y-9064048D01*
X5207620Y-9064048D02*
X5198096Y-9025953D01*
X5198096Y-9025953D02*
X5198096Y-8978334D01*
X5198096Y-8978334D02*
X5207620Y-8940238D01*
X5207620Y-8940238D02*
X5217144Y-8921191D01*
X5217144Y-8921191D02*
X5226668Y-8911667D01*
X5226668Y-8911667D02*
X5245715Y-8902143D01*
X5398096Y-9083096D02*
X5407620Y-9092619D01*
X5407620Y-9092619D02*
X5398096Y-9102143D01*
X5398096Y-9102143D02*
X5388573Y-9092619D01*
X5388573Y-9092619D02*
X5398096Y-9083096D01*
X5398096Y-9083096D02*
X5398096Y-9102143D01*
X5531430Y-8902143D02*
X5550477Y-8902143D01*
X5550477Y-8902143D02*
X5569525Y-8911667D01*
X5569525Y-8911667D02*
X5579049Y-8921191D01*
X5579049Y-8921191D02*
X5588573Y-8940238D01*
X5588573Y-8940238D02*
X5598096Y-8978334D01*
X5598096Y-8978334D02*
X5598096Y-9025953D01*
X5598096Y-9025953D02*
X5588573Y-9064048D01*
X5588573Y-9064048D02*
X5579049Y-9083096D01*
X5579049Y-9083096D02*
X5569525Y-9092619D01*
X5569525Y-9092619D02*
X5550477Y-9102143D01*
X5550477Y-9102143D02*
X5531430Y-9102143D01*
X5531430Y-9102143D02*
X5512382Y-9092619D01*
X5512382Y-9092619D02*
X5502858Y-9083096D01*
X5502858Y-9083096D02*
X5493334Y-9064048D01*
X5493334Y-9064048D02*
X5483811Y-9025953D01*
X5483811Y-9025953D02*
X5483811Y-8978334D01*
X5483811Y-8978334D02*
X5493334Y-8940238D01*
X5493334Y-8940238D02*
X5502858Y-8921191D01*
X5502858Y-8921191D02*
X5512382Y-8911667D01*
X5512382Y-8911667D02*
X5531430Y-8902143D01*
X5769525Y-8968810D02*
X5769525Y-9102143D01*
X5721906Y-8892619D02*
X5674287Y-9035477D01*
X5674287Y-9035477D02*
X5798096Y-9035477D01*
X5855239Y-8902143D02*
X5988572Y-8902143D01*
X5988572Y-8902143D02*
X5902858Y-9102143D01*
X6055239Y-8921191D02*
X6064763Y-8911667D01*
X6064763Y-8911667D02*
X6083811Y-8902143D01*
X6083811Y-8902143D02*
X6131430Y-8902143D01*
X6131430Y-8902143D02*
X6150477Y-8911667D01*
X6150477Y-8911667D02*
X6160001Y-8921191D01*
X6160001Y-8921191D02*
X6169525Y-8940238D01*
X6169525Y-8940238D02*
X6169525Y-8959286D01*
X6169525Y-8959286D02*
X6160001Y-8987857D01*
X6160001Y-8987857D02*
X6045715Y-9102143D01*
X6045715Y-9102143D02*
X6169525Y-9102143D01*
X6245715Y-8902143D02*
X6245715Y-8940238D01*
X6321906Y-8902143D02*
X6321906Y-8940238D01*
X6584763Y-9178334D02*
X6575239Y-9168810D01*
X6575239Y-9168810D02*
X6556192Y-9140238D01*
X6556192Y-9140238D02*
X6546668Y-9121191D01*
X6546668Y-9121191D02*
X6537144Y-9092619D01*
X6537144Y-9092619D02*
X6527620Y-9045000D01*
X6527620Y-9045000D02*
X6527620Y-9006905D01*
X6527620Y-9006905D02*
X6537144Y-8959286D01*
X6537144Y-8959286D02*
X6546668Y-8930715D01*
X6546668Y-8930715D02*
X6556192Y-8911667D01*
X6556192Y-8911667D02*
X6575239Y-8883096D01*
X6575239Y-8883096D02*
X6584763Y-8873572D01*
X6641906Y-8902143D02*
X6765715Y-8902143D01*
X6765715Y-8902143D02*
X6699049Y-8978334D01*
X6699049Y-8978334D02*
X6727620Y-8978334D01*
X6727620Y-8978334D02*
X6746668Y-8987857D01*
X6746668Y-8987857D02*
X6756192Y-8997381D01*
X6756192Y-8997381D02*
X6765715Y-9016429D01*
X6765715Y-9016429D02*
X6765715Y-9064048D01*
X6765715Y-9064048D02*
X6756192Y-9083096D01*
X6756192Y-9083096D02*
X6746668Y-9092619D01*
X6746668Y-9092619D02*
X6727620Y-9102143D01*
X6727620Y-9102143D02*
X6670477Y-9102143D01*
X6670477Y-9102143D02*
X6651430Y-9092619D01*
X6651430Y-9092619D02*
X6641906Y-9083096D01*
X6841906Y-8921191D02*
X6851430Y-8911667D01*
X6851430Y-8911667D02*
X6870477Y-8902143D01*
X6870477Y-8902143D02*
X6918096Y-8902143D01*
X6918096Y-8902143D02*
X6937144Y-8911667D01*
X6937144Y-8911667D02*
X6946668Y-8921191D01*
X6946668Y-8921191D02*
X6956192Y-8940238D01*
X6956192Y-8940238D02*
X6956192Y-8959286D01*
X6956192Y-8959286D02*
X6946668Y-8987857D01*
X6946668Y-8987857D02*
X6832382Y-9102143D01*
X6832382Y-9102143D02*
X6956192Y-9102143D01*
X7161906Y-9102143D02*
X7161906Y-8902143D01*
X7247620Y-9102143D02*
X7247620Y-8997381D01*
X7247620Y-8997381D02*
X7238096Y-8978334D01*
X7238096Y-8978334D02*
X7219049Y-8968810D01*
X7219049Y-8968810D02*
X7190477Y-8968810D01*
X7190477Y-8968810D02*
X7171430Y-8978334D01*
X7171430Y-8978334D02*
X7161906Y-8987857D01*
X7371430Y-9102143D02*
X7352382Y-9092619D01*
X7352382Y-9092619D02*
X7342858Y-9083096D01*
X7342858Y-9083096D02*
X7333334Y-9064048D01*
X7333334Y-9064048D02*
X7333334Y-9006905D01*
X7333334Y-9006905D02*
X7342858Y-8987857D01*
X7342858Y-8987857D02*
X7352382Y-8978334D01*
X7352382Y-8978334D02*
X7371430Y-8968810D01*
X7371430Y-8968810D02*
X7400001Y-8968810D01*
X7400001Y-8968810D02*
X7419049Y-8978334D01*
X7419049Y-8978334D02*
X7428573Y-8987857D01*
X7428573Y-8987857D02*
X7438096Y-9006905D01*
X7438096Y-9006905D02*
X7438096Y-9064048D01*
X7438096Y-9064048D02*
X7428573Y-9083096D01*
X7428573Y-9083096D02*
X7419049Y-9092619D01*
X7419049Y-9092619D02*
X7400001Y-9102143D01*
X7400001Y-9102143D02*
X7371430Y-9102143D01*
X7552382Y-9102143D02*
X7533334Y-9092619D01*
X7533334Y-9092619D02*
X7523811Y-9073572D01*
X7523811Y-9073572D02*
X7523811Y-8902143D01*
X7704763Y-9092619D02*
X7685715Y-9102143D01*
X7685715Y-9102143D02*
X7647620Y-9102143D01*
X7647620Y-9102143D02*
X7628573Y-9092619D01*
X7628573Y-9092619D02*
X7619049Y-9073572D01*
X7619049Y-9073572D02*
X7619049Y-8997381D01*
X7619049Y-8997381D02*
X7628573Y-8978334D01*
X7628573Y-8978334D02*
X7647620Y-8968810D01*
X7647620Y-8968810D02*
X7685715Y-8968810D01*
X7685715Y-8968810D02*
X7704763Y-8978334D01*
X7704763Y-8978334D02*
X7714287Y-8997381D01*
X7714287Y-8997381D02*
X7714287Y-9016429D01*
X7714287Y-9016429D02*
X7619049Y-9035477D01*
X7790477Y-9092619D02*
X7809525Y-9102143D01*
X7809525Y-9102143D02*
X7847620Y-9102143D01*
X7847620Y-9102143D02*
X7866668Y-9092619D01*
X7866668Y-9092619D02*
X7876192Y-9073572D01*
X7876192Y-9073572D02*
X7876192Y-9064048D01*
X7876192Y-9064048D02*
X7866668Y-9045000D01*
X7866668Y-9045000D02*
X7847620Y-9035477D01*
X7847620Y-9035477D02*
X7819049Y-9035477D01*
X7819049Y-9035477D02*
X7800001Y-9025953D01*
X7800001Y-9025953D02*
X7790477Y-9006905D01*
X7790477Y-9006905D02*
X7790477Y-8997381D01*
X7790477Y-8997381D02*
X7800001Y-8978334D01*
X7800001Y-8978334D02*
X7819049Y-8968810D01*
X7819049Y-8968810D02*
X7847620Y-8968810D01*
X7847620Y-8968810D02*
X7866668Y-8978334D01*
X7942858Y-9178334D02*
X7952382Y-9168810D01*
X7952382Y-9168810D02*
X7971430Y-9140238D01*
X7971430Y-9140238D02*
X7980954Y-9121191D01*
X7980954Y-9121191D02*
X7990477Y-9092619D01*
X7990477Y-9092619D02*
X8000001Y-9045000D01*
X8000001Y-9045000D02*
X8000001Y-9006905D01*
X8000001Y-9006905D02*
X7990477Y-8959286D01*
X7990477Y-8959286D02*
X7980954Y-8930715D01*
X7980954Y-8930715D02*
X7971430Y-8911667D01*
X7971430Y-8911667D02*
X7952382Y-8883096D01*
X7952382Y-8883096D02*
X7942858Y-8873572D01*
X3020001Y-9392667D02*
X3120001Y-9292667D01*
X3020001Y-9192667D01*
X2920001Y-9292667D01*
X3020001Y-9392667D01*
X3358096Y-9185191D02*
X3367620Y-9175667D01*
X3367620Y-9175667D02*
X3386668Y-9166143D01*
X3386668Y-9166143D02*
X3434287Y-9166143D01*
X3434287Y-9166143D02*
X3453334Y-9175667D01*
X3453334Y-9175667D02*
X3462858Y-9185191D01*
X3462858Y-9185191D02*
X3472382Y-9204238D01*
X3472382Y-9204238D02*
X3472382Y-9223286D01*
X3472382Y-9223286D02*
X3462858Y-9251857D01*
X3462858Y-9251857D02*
X3348572Y-9366143D01*
X3348572Y-9366143D02*
X3472382Y-9366143D01*
X3558096Y-9347096D02*
X3567620Y-9356619D01*
X3567620Y-9356619D02*
X3558096Y-9366143D01*
X3558096Y-9366143D02*
X3548572Y-9356619D01*
X3548572Y-9356619D02*
X3558096Y-9347096D01*
X3558096Y-9347096D02*
X3558096Y-9366143D01*
X3643810Y-9185191D02*
X3653334Y-9175667D01*
X3653334Y-9175667D02*
X3672382Y-9166143D01*
X3672382Y-9166143D02*
X3720001Y-9166143D01*
X3720001Y-9166143D02*
X3739049Y-9175667D01*
X3739049Y-9175667D02*
X3748572Y-9185191D01*
X3748572Y-9185191D02*
X3758096Y-9204238D01*
X3758096Y-9204238D02*
X3758096Y-9223286D01*
X3758096Y-9223286D02*
X3748572Y-9251857D01*
X3748572Y-9251857D02*
X3634287Y-9366143D01*
X3634287Y-9366143D02*
X3758096Y-9366143D01*
X3881906Y-9166143D02*
X3900953Y-9166143D01*
X3900953Y-9166143D02*
X3920001Y-9175667D01*
X3920001Y-9175667D02*
X3929525Y-9185191D01*
X3929525Y-9185191D02*
X3939049Y-9204238D01*
X3939049Y-9204238D02*
X3948572Y-9242334D01*
X3948572Y-9242334D02*
X3948572Y-9289953D01*
X3948572Y-9289953D02*
X3939049Y-9328048D01*
X3939049Y-9328048D02*
X3929525Y-9347096D01*
X3929525Y-9347096D02*
X3920001Y-9356619D01*
X3920001Y-9356619D02*
X3900953Y-9366143D01*
X3900953Y-9366143D02*
X3881906Y-9366143D01*
X3881906Y-9366143D02*
X3862858Y-9356619D01*
X3862858Y-9356619D02*
X3853334Y-9347096D01*
X3853334Y-9347096D02*
X3843810Y-9328048D01*
X3843810Y-9328048D02*
X3834287Y-9289953D01*
X3834287Y-9289953D02*
X3834287Y-9242334D01*
X3834287Y-9242334D02*
X3843810Y-9204238D01*
X3843810Y-9204238D02*
X3853334Y-9185191D01*
X3853334Y-9185191D02*
X3862858Y-9175667D01*
X3862858Y-9175667D02*
X3881906Y-9166143D01*
X4072382Y-9166143D02*
X4091430Y-9166143D01*
X4091430Y-9166143D02*
X4110477Y-9175667D01*
X4110477Y-9175667D02*
X4120001Y-9185191D01*
X4120001Y-9185191D02*
X4129525Y-9204238D01*
X4129525Y-9204238D02*
X4139049Y-9242334D01*
X4139049Y-9242334D02*
X4139049Y-9289953D01*
X4139049Y-9289953D02*
X4129525Y-9328048D01*
X4129525Y-9328048D02*
X4120001Y-9347096D01*
X4120001Y-9347096D02*
X4110477Y-9356619D01*
X4110477Y-9356619D02*
X4091430Y-9366143D01*
X4091430Y-9366143D02*
X4072382Y-9366143D01*
X4072382Y-9366143D02*
X4053334Y-9356619D01*
X4053334Y-9356619D02*
X4043810Y-9347096D01*
X4043810Y-9347096D02*
X4034287Y-9328048D01*
X4034287Y-9328048D02*
X4024763Y-9289953D01*
X4024763Y-9289953D02*
X4024763Y-9242334D01*
X4024763Y-9242334D02*
X4034287Y-9204238D01*
X4034287Y-9204238D02*
X4043810Y-9185191D01*
X4043810Y-9185191D02*
X4053334Y-9175667D01*
X4053334Y-9175667D02*
X4072382Y-9166143D01*
X4224763Y-9366143D02*
X4224763Y-9232810D01*
X4224763Y-9251857D02*
X4234287Y-9242334D01*
X4234287Y-9242334D02*
X4253334Y-9232810D01*
X4253334Y-9232810D02*
X4281906Y-9232810D01*
X4281906Y-9232810D02*
X4300953Y-9242334D01*
X4300953Y-9242334D02*
X4310477Y-9261381D01*
X4310477Y-9261381D02*
X4310477Y-9366143D01*
X4310477Y-9261381D02*
X4320001Y-9242334D01*
X4320001Y-9242334D02*
X4339049Y-9232810D01*
X4339049Y-9232810D02*
X4367620Y-9232810D01*
X4367620Y-9232810D02*
X4386668Y-9242334D01*
X4386668Y-9242334D02*
X4396192Y-9261381D01*
X4396192Y-9261381D02*
X4396192Y-9366143D01*
X4491430Y-9366143D02*
X4491430Y-9232810D01*
X4491430Y-9251857D02*
X4500953Y-9242334D01*
X4500953Y-9242334D02*
X4520001Y-9232810D01*
X4520001Y-9232810D02*
X4548573Y-9232810D01*
X4548573Y-9232810D02*
X4567620Y-9242334D01*
X4567620Y-9242334D02*
X4577144Y-9261381D01*
X4577144Y-9261381D02*
X4577144Y-9366143D01*
X4577144Y-9261381D02*
X4586668Y-9242334D01*
X4586668Y-9242334D02*
X4605715Y-9232810D01*
X4605715Y-9232810D02*
X4634287Y-9232810D01*
X4634287Y-9232810D02*
X4653334Y-9242334D01*
X4653334Y-9242334D02*
X4662858Y-9261381D01*
X4662858Y-9261381D02*
X4662858Y-9366143D01*
X5020953Y-9156619D02*
X4849525Y-9413762D01*
X5245715Y-9166143D02*
X5264763Y-9166143D01*
X5264763Y-9166143D02*
X5283811Y-9175667D01*
X5283811Y-9175667D02*
X5293334Y-9185191D01*
X5293334Y-9185191D02*
X5302858Y-9204238D01*
X5302858Y-9204238D02*
X5312382Y-9242334D01*
X5312382Y-9242334D02*
X5312382Y-9289953D01*
X5312382Y-9289953D02*
X5302858Y-9328048D01*
X5302858Y-9328048D02*
X5293334Y-9347096D01*
X5293334Y-9347096D02*
X5283811Y-9356619D01*
X5283811Y-9356619D02*
X5264763Y-9366143D01*
X5264763Y-9366143D02*
X5245715Y-9366143D01*
X5245715Y-9366143D02*
X5226668Y-9356619D01*
X5226668Y-9356619D02*
X5217144Y-9347096D01*
X5217144Y-9347096D02*
X5207620Y-9328048D01*
X5207620Y-9328048D02*
X5198096Y-9289953D01*
X5198096Y-9289953D02*
X5198096Y-9242334D01*
X5198096Y-9242334D02*
X5207620Y-9204238D01*
X5207620Y-9204238D02*
X5217144Y-9185191D01*
X5217144Y-9185191D02*
X5226668Y-9175667D01*
X5226668Y-9175667D02*
X5245715Y-9166143D01*
X5398096Y-9347096D02*
X5407620Y-9356619D01*
X5407620Y-9356619D02*
X5398096Y-9366143D01*
X5398096Y-9366143D02*
X5388573Y-9356619D01*
X5388573Y-9356619D02*
X5398096Y-9347096D01*
X5398096Y-9347096D02*
X5398096Y-9366143D01*
X5531430Y-9166143D02*
X5550477Y-9166143D01*
X5550477Y-9166143D02*
X5569525Y-9175667D01*
X5569525Y-9175667D02*
X5579049Y-9185191D01*
X5579049Y-9185191D02*
X5588573Y-9204238D01*
X5588573Y-9204238D02*
X5598096Y-9242334D01*
X5598096Y-9242334D02*
X5598096Y-9289953D01*
X5598096Y-9289953D02*
X5588573Y-9328048D01*
X5588573Y-9328048D02*
X5579049Y-9347096D01*
X5579049Y-9347096D02*
X5569525Y-9356619D01*
X5569525Y-9356619D02*
X5550477Y-9366143D01*
X5550477Y-9366143D02*
X5531430Y-9366143D01*
X5531430Y-9366143D02*
X5512382Y-9356619D01*
X5512382Y-9356619D02*
X5502858Y-9347096D01*
X5502858Y-9347096D02*
X5493334Y-9328048D01*
X5493334Y-9328048D02*
X5483811Y-9289953D01*
X5483811Y-9289953D02*
X5483811Y-9242334D01*
X5483811Y-9242334D02*
X5493334Y-9204238D01*
X5493334Y-9204238D02*
X5502858Y-9185191D01*
X5502858Y-9185191D02*
X5512382Y-9175667D01*
X5512382Y-9175667D02*
X5531430Y-9166143D01*
X5712382Y-9251857D02*
X5693334Y-9242334D01*
X5693334Y-9242334D02*
X5683811Y-9232810D01*
X5683811Y-9232810D02*
X5674287Y-9213762D01*
X5674287Y-9213762D02*
X5674287Y-9204238D01*
X5674287Y-9204238D02*
X5683811Y-9185191D01*
X5683811Y-9185191D02*
X5693334Y-9175667D01*
X5693334Y-9175667D02*
X5712382Y-9166143D01*
X5712382Y-9166143D02*
X5750477Y-9166143D01*
X5750477Y-9166143D02*
X5769525Y-9175667D01*
X5769525Y-9175667D02*
X5779049Y-9185191D01*
X5779049Y-9185191D02*
X5788572Y-9204238D01*
X5788572Y-9204238D02*
X5788572Y-9213762D01*
X5788572Y-9213762D02*
X5779049Y-9232810D01*
X5779049Y-9232810D02*
X5769525Y-9242334D01*
X5769525Y-9242334D02*
X5750477Y-9251857D01*
X5750477Y-9251857D02*
X5712382Y-9251857D01*
X5712382Y-9251857D02*
X5693334Y-9261381D01*
X5693334Y-9261381D02*
X5683811Y-9270905D01*
X5683811Y-9270905D02*
X5674287Y-9289953D01*
X5674287Y-9289953D02*
X5674287Y-9328048D01*
X5674287Y-9328048D02*
X5683811Y-9347096D01*
X5683811Y-9347096D02*
X5693334Y-9356619D01*
X5693334Y-9356619D02*
X5712382Y-9366143D01*
X5712382Y-9366143D02*
X5750477Y-9366143D01*
X5750477Y-9366143D02*
X5769525Y-9356619D01*
X5769525Y-9356619D02*
X5779049Y-9347096D01*
X5779049Y-9347096D02*
X5788572Y-9328048D01*
X5788572Y-9328048D02*
X5788572Y-9289953D01*
X5788572Y-9289953D02*
X5779049Y-9270905D01*
X5779049Y-9270905D02*
X5769525Y-9261381D01*
X5769525Y-9261381D02*
X5750477Y-9251857D01*
X5960001Y-9166143D02*
X5921906Y-9166143D01*
X5921906Y-9166143D02*
X5902858Y-9175667D01*
X5902858Y-9175667D02*
X5893334Y-9185191D01*
X5893334Y-9185191D02*
X5874287Y-9213762D01*
X5874287Y-9213762D02*
X5864763Y-9251857D01*
X5864763Y-9251857D02*
X5864763Y-9328048D01*
X5864763Y-9328048D02*
X5874287Y-9347096D01*
X5874287Y-9347096D02*
X5883811Y-9356619D01*
X5883811Y-9356619D02*
X5902858Y-9366143D01*
X5902858Y-9366143D02*
X5940953Y-9366143D01*
X5940953Y-9366143D02*
X5960001Y-9356619D01*
X5960001Y-9356619D02*
X5969525Y-9347096D01*
X5969525Y-9347096D02*
X5979049Y-9328048D01*
X5979049Y-9328048D02*
X5979049Y-9280429D01*
X5979049Y-9280429D02*
X5969525Y-9261381D01*
X5969525Y-9261381D02*
X5960001Y-9251857D01*
X5960001Y-9251857D02*
X5940953Y-9242334D01*
X5940953Y-9242334D02*
X5902858Y-9242334D01*
X5902858Y-9242334D02*
X5883811Y-9251857D01*
X5883811Y-9251857D02*
X5874287Y-9261381D01*
X5874287Y-9261381D02*
X5864763Y-9280429D01*
X6150477Y-9166143D02*
X6112382Y-9166143D01*
X6112382Y-9166143D02*
X6093334Y-9175667D01*
X6093334Y-9175667D02*
X6083811Y-9185191D01*
X6083811Y-9185191D02*
X6064763Y-9213762D01*
X6064763Y-9213762D02*
X6055239Y-9251857D01*
X6055239Y-9251857D02*
X6055239Y-9328048D01*
X6055239Y-9328048D02*
X6064763Y-9347096D01*
X6064763Y-9347096D02*
X6074287Y-9356619D01*
X6074287Y-9356619D02*
X6093334Y-9366143D01*
X6093334Y-9366143D02*
X6131430Y-9366143D01*
X6131430Y-9366143D02*
X6150477Y-9356619D01*
X6150477Y-9356619D02*
X6160001Y-9347096D01*
X6160001Y-9347096D02*
X6169525Y-9328048D01*
X6169525Y-9328048D02*
X6169525Y-9280429D01*
X6169525Y-9280429D02*
X6160001Y-9261381D01*
X6160001Y-9261381D02*
X6150477Y-9251857D01*
X6150477Y-9251857D02*
X6131430Y-9242334D01*
X6131430Y-9242334D02*
X6093334Y-9242334D01*
X6093334Y-9242334D02*
X6074287Y-9251857D01*
X6074287Y-9251857D02*
X6064763Y-9261381D01*
X6064763Y-9261381D02*
X6055239Y-9280429D01*
X6245715Y-9166143D02*
X6245715Y-9204238D01*
X6321906Y-9166143D02*
X6321906Y-9204238D01*
X6584763Y-9442334D02*
X6575239Y-9432810D01*
X6575239Y-9432810D02*
X6556192Y-9404238D01*
X6556192Y-9404238D02*
X6546668Y-9385191D01*
X6546668Y-9385191D02*
X6537144Y-9356619D01*
X6537144Y-9356619D02*
X6527620Y-9309000D01*
X6527620Y-9309000D02*
X6527620Y-9270905D01*
X6527620Y-9270905D02*
X6537144Y-9223286D01*
X6537144Y-9223286D02*
X6546668Y-9194715D01*
X6546668Y-9194715D02*
X6556192Y-9175667D01*
X6556192Y-9175667D02*
X6575239Y-9147096D01*
X6575239Y-9147096D02*
X6584763Y-9137572D01*
X6746668Y-9232810D02*
X6746668Y-9366143D01*
X6699049Y-9156619D02*
X6651430Y-9299477D01*
X6651430Y-9299477D02*
X6775239Y-9299477D01*
X6971430Y-9366143D02*
X6971430Y-9166143D01*
X7057144Y-9366143D02*
X7057144Y-9261381D01*
X7057144Y-9261381D02*
X7047620Y-9242334D01*
X7047620Y-9242334D02*
X7028573Y-9232810D01*
X7028573Y-9232810D02*
X7000001Y-9232810D01*
X7000001Y-9232810D02*
X6980953Y-9242334D01*
X6980953Y-9242334D02*
X6971430Y-9251857D01*
X7180953Y-9366143D02*
X7161906Y-9356619D01*
X7161906Y-9356619D02*
X7152382Y-9347096D01*
X7152382Y-9347096D02*
X7142858Y-9328048D01*
X7142858Y-9328048D02*
X7142858Y-9270905D01*
X7142858Y-9270905D02*
X7152382Y-9251857D01*
X7152382Y-9251857D02*
X7161906Y-9242334D01*
X7161906Y-9242334D02*
X7180953Y-9232810D01*
X7180953Y-9232810D02*
X7209525Y-9232810D01*
X7209525Y-9232810D02*
X7228573Y-9242334D01*
X7228573Y-9242334D02*
X7238096Y-9251857D01*
X7238096Y-9251857D02*
X7247620Y-9270905D01*
X7247620Y-9270905D02*
X7247620Y-9328048D01*
X7247620Y-9328048D02*
X7238096Y-9347096D01*
X7238096Y-9347096D02*
X7228573Y-9356619D01*
X7228573Y-9356619D02*
X7209525Y-9366143D01*
X7209525Y-9366143D02*
X7180953Y-9366143D01*
X7361906Y-9366143D02*
X7342858Y-9356619D01*
X7342858Y-9356619D02*
X7333334Y-9337572D01*
X7333334Y-9337572D02*
X7333334Y-9166143D01*
X7514287Y-9356619D02*
X7495239Y-9366143D01*
X7495239Y-9366143D02*
X7457144Y-9366143D01*
X7457144Y-9366143D02*
X7438096Y-9356619D01*
X7438096Y-9356619D02*
X7428573Y-9337572D01*
X7428573Y-9337572D02*
X7428573Y-9261381D01*
X7428573Y-9261381D02*
X7438096Y-9242334D01*
X7438096Y-9242334D02*
X7457144Y-9232810D01*
X7457144Y-9232810D02*
X7495239Y-9232810D01*
X7495239Y-9232810D02*
X7514287Y-9242334D01*
X7514287Y-9242334D02*
X7523811Y-9261381D01*
X7523811Y-9261381D02*
X7523811Y-9280429D01*
X7523811Y-9280429D02*
X7428573Y-9299477D01*
X7600001Y-9356619D02*
X7619049Y-9366143D01*
X7619049Y-9366143D02*
X7657144Y-9366143D01*
X7657144Y-9366143D02*
X7676192Y-9356619D01*
X7676192Y-9356619D02*
X7685715Y-9337572D01*
X7685715Y-9337572D02*
X7685715Y-9328048D01*
X7685715Y-9328048D02*
X7676192Y-9309000D01*
X7676192Y-9309000D02*
X7657144Y-9299477D01*
X7657144Y-9299477D02*
X7628573Y-9299477D01*
X7628573Y-9299477D02*
X7609525Y-9289953D01*
X7609525Y-9289953D02*
X7600001Y-9270905D01*
X7600001Y-9270905D02*
X7600001Y-9261381D01*
X7600001Y-9261381D02*
X7609525Y-9242334D01*
X7609525Y-9242334D02*
X7628573Y-9232810D01*
X7628573Y-9232810D02*
X7657144Y-9232810D01*
X7657144Y-9232810D02*
X7676192Y-9242334D01*
X7752382Y-9442334D02*
X7761906Y-9432810D01*
X7761906Y-9432810D02*
X7780954Y-9404238D01*
X7780954Y-9404238D02*
X7790477Y-9385191D01*
X7790477Y-9385191D02*
X7800001Y-9356619D01*
X7800001Y-9356619D02*
X7809525Y-9309000D01*
X7809525Y-9309000D02*
X7809525Y-9270905D01*
X7809525Y-9270905D02*
X7800001Y-9223286D01*
X7800001Y-9223286D02*
X7790477Y-9194715D01*
X7790477Y-9194715D02*
X7780954Y-9175667D01*
X7780954Y-9175667D02*
X7761906Y-9147096D01*
X7761906Y-9147096D02*
X7752382Y-9137572D01*
M02*
