M48
; DRILL file {KiCad (7.0.0-rc1-156-g4c5a344629)} date Tue Mar  7 17:57:53 2023
; FORMAT={-:-/ absolute / metric / decimal}
; #@! TF.CreationDate,2023-03-07T17:57:53+10:30
; #@! TF.GenerationSoftware,Kicad,Pcbnew,(7.0.0-rc1-156-g4c5a344629)
; #@! TF.FileFunction,NonPlated,1,2,NPTH
FMAT,2
METRIC
; #@! TA.AperFunction,NonPlated,NPTH,ComponentDrill
T1C1.200
; #@! TA.AperFunction,NonPlated,NPTH,ComponentDrill
T2C1.700
; #@! TA.AperFunction,NonPlated,NPTH,ComponentDrill
T3C3.400
%
G90
G05
T1
X47.72Y-9.967
X47.72Y-26.967
X47.72Y-43.967
X47.72Y-60.967
X65.72Y-9.967
X65.72Y-26.967
X65.72Y-43.967
X65.72Y-60.967
X83.72Y-9.967
X83.72Y-26.967
X83.72Y-43.967
X83.72Y-60.967
X101.72Y-9.967
X101.72Y-26.967
X101.72Y-43.967
X101.72Y-60.967
T2
X37.0Y-14.167
X37.0Y-31.167
X37.0Y-48.167
X37.0Y-65.167
X48.0Y-14.167
X48.0Y-31.167
X48.0Y-48.167
X48.0Y-65.167
X55.0Y-14.167
X55.0Y-31.167
X55.0Y-48.167
X55.0Y-65.167
X66.0Y-14.167
X66.0Y-31.167
X66.0Y-48.167
X66.0Y-65.167
X73.0Y-14.167
X73.0Y-31.167
X73.0Y-48.167
X73.0Y-65.167
X84.0Y-14.167
X84.0Y-31.167
X84.0Y-48.167
X84.0Y-65.167
X91.0Y-14.167
X91.0Y-31.167
X91.0Y-48.167
X91.0Y-65.167
X102.0Y-14.167
X102.0Y-31.167
X102.0Y-48.167
X102.0Y-65.167
T3
X42.5Y-14.167
X42.5Y-31.167
X42.5Y-48.167
X42.5Y-65.167
X60.5Y-14.167
X60.5Y-31.167
X60.5Y-48.167
X60.5Y-65.167
X78.5Y-14.167
X78.5Y-31.167
X78.5Y-48.167
X78.5Y-65.167
X96.5Y-14.167
X96.5Y-31.167
X96.5Y-48.167
X96.5Y-65.167
T0
M30
