%TF.GenerationSoftware,KiCad,Pcbnew,(7.0.0-rc1-156-g4c5a344629)*%
%TF.CreationDate,2023-03-07T17:57:50+10:30*%
%TF.ProjectId,4x4,3478342e-6b69-4636-9164-5f7063625858,rev?*%
%TF.SameCoordinates,Original*%
%TF.FileFunction,Soldermask,Bot*%
%TF.FilePolarity,Negative*%
%FSLAX46Y46*%
G04 Gerber Fmt 4.6, Leading zero omitted, Abs format (unit mm)*
G04 Created by KiCad (PCBNEW (7.0.0-rc1-156-g4c5a344629)) date 2023-03-07 17:57:50*
%MOMM*%
%LPD*%
G01*
G04 APERTURE LIST*
%ADD10C,0.700000*%
%ADD11C,4.400000*%
%ADD12C,1.700000*%
%ADD13C,3.400000*%
%ADD14C,1.200000*%
%ADD15C,2.000000*%
%ADD16R,1.600000X1.600000*%
%ADD17C,1.600000*%
G04 APERTURE END LIST*
D10*
%TO.C,REF\u002A\u002A*%
X103850010Y-5666668D03*
X104333284Y-4499942D03*
X104333284Y-6833394D03*
X105500010Y-4016668D03*
D11*
X105500010Y-5666668D03*
D10*
X105500010Y-7316668D03*
X106666736Y-4499942D03*
X106666736Y-6833394D03*
X107150010Y-5666668D03*
%TD*%
%TO.C,REF\u002A\u002A*%
X35150010Y-73666684D03*
X34666736Y-74833410D03*
X34666736Y-72499958D03*
X33500010Y-75316684D03*
D11*
X33500010Y-73666684D03*
D10*
X33500010Y-72016684D03*
X32333284Y-74833410D03*
X32333284Y-72499958D03*
X31850010Y-73666684D03*
%TD*%
%TO.C,REF\u002A\u002A*%
X31850010Y-5666668D03*
X32333284Y-4499942D03*
X32333284Y-6833394D03*
X33500010Y-4016668D03*
D11*
X33500010Y-5666668D03*
D10*
X33500010Y-7316668D03*
X34666736Y-4499942D03*
X34666736Y-6833394D03*
X35150010Y-5666668D03*
%TD*%
%TO.C,REF\u002A\u002A*%
X103850010Y-73666684D03*
X104333284Y-72499958D03*
X104333284Y-74833410D03*
X105500010Y-72016684D03*
D11*
X105500010Y-73666684D03*
D10*
X105500010Y-75316684D03*
X106666736Y-72499958D03*
X106666736Y-74833410D03*
X107150010Y-73666684D03*
%TD*%
D12*
%TO.C,SW13*%
X91000010Y-14166670D03*
D13*
X96500010Y-14166670D03*
D14*
X101720010Y-9966670D03*
D12*
X102000010Y-14166670D03*
D15*
X91500010Y-17966670D03*
X96500010Y-20066670D03*
%TD*%
D12*
%TO.C,SW11*%
X73000010Y-48166678D03*
D13*
X78500010Y-48166678D03*
D14*
X83720010Y-43966678D03*
D12*
X84000010Y-48166678D03*
D15*
X73500010Y-51966678D03*
X78500010Y-54066678D03*
%TD*%
D12*
%TO.C,SW2*%
X37000010Y-31166674D03*
D13*
X42500010Y-31166674D03*
D14*
X47720010Y-26966674D03*
D12*
X48000010Y-31166674D03*
D15*
X37500010Y-34966674D03*
X42500010Y-37066674D03*
%TD*%
D12*
%TO.C,SW5*%
X55000010Y-14166670D03*
D13*
X60500010Y-14166670D03*
D14*
X65720010Y-9966670D03*
D12*
X66000010Y-14166670D03*
D15*
X55500010Y-17966670D03*
X60500010Y-20066670D03*
%TD*%
D12*
%TO.C,SW4*%
X37000010Y-65166682D03*
D13*
X42500010Y-65166682D03*
D14*
X47720010Y-60966682D03*
D12*
X48000010Y-65166682D03*
D15*
X37500010Y-68966682D03*
X42500010Y-71066682D03*
%TD*%
D12*
%TO.C,SW3*%
X37000010Y-48166678D03*
D13*
X42500010Y-48166678D03*
D14*
X47720010Y-43966678D03*
D12*
X48000010Y-48166678D03*
D15*
X37500010Y-51966678D03*
X42500010Y-54066678D03*
%TD*%
D12*
%TO.C,SW14*%
X91000010Y-31166674D03*
D13*
X96500010Y-31166674D03*
D14*
X101720010Y-26966674D03*
D12*
X102000010Y-31166674D03*
D15*
X91500010Y-34966674D03*
X96500010Y-37066674D03*
%TD*%
D12*
%TO.C,SW1*%
X37000010Y-14166670D03*
D13*
X42500010Y-14166670D03*
D14*
X47720010Y-9966670D03*
D12*
X48000010Y-14166670D03*
D15*
X37500010Y-17966670D03*
X42500010Y-20066670D03*
%TD*%
D12*
%TO.C,SW16*%
X91000010Y-65166682D03*
D13*
X96500010Y-65166682D03*
D14*
X101720010Y-60966682D03*
D12*
X102000010Y-65166682D03*
D15*
X91500010Y-68966682D03*
X96500010Y-71066682D03*
%TD*%
D12*
%TO.C,SW12*%
X73000010Y-65166682D03*
D13*
X78500010Y-65166682D03*
D14*
X83720010Y-60966682D03*
D12*
X84000010Y-65166682D03*
D15*
X73500010Y-68966682D03*
X78500010Y-71066682D03*
%TD*%
D12*
%TO.C,SW8*%
X55000010Y-65166682D03*
D13*
X60500010Y-65166682D03*
D14*
X65720010Y-60966682D03*
D12*
X66000010Y-65166682D03*
D15*
X55500010Y-68966682D03*
X60500010Y-71066682D03*
%TD*%
D12*
%TO.C,SW15*%
X91000010Y-48166678D03*
D13*
X96500010Y-48166678D03*
D14*
X101720010Y-43966678D03*
D12*
X102000010Y-48166678D03*
D15*
X91500010Y-51966678D03*
X96500010Y-54066678D03*
%TD*%
D12*
%TO.C,SW9*%
X73000010Y-14166670D03*
D13*
X78500010Y-14166670D03*
D14*
X83720010Y-9966670D03*
D12*
X84000010Y-14166670D03*
D15*
X73500010Y-17966670D03*
X78500010Y-20066670D03*
%TD*%
D12*
%TO.C,SW7*%
X55000010Y-48166678D03*
D13*
X60500010Y-48166678D03*
D14*
X65720010Y-43966678D03*
D12*
X66000010Y-48166678D03*
D15*
X55500010Y-51966678D03*
X60500010Y-54066678D03*
%TD*%
D12*
%TO.C,SW10*%
X73000010Y-31166674D03*
D13*
X78500010Y-31166674D03*
D14*
X83720010Y-26966674D03*
D12*
X84000010Y-31166674D03*
D15*
X73500010Y-34966674D03*
X78500010Y-37066674D03*
%TD*%
D12*
%TO.C,SW6*%
X55000010Y-31166674D03*
D13*
X60500010Y-31166674D03*
D14*
X65720010Y-26966674D03*
D12*
X66000010Y-31166674D03*
D15*
X55500010Y-34966674D03*
X60500010Y-37066674D03*
%TD*%
D16*
%TO.C,U1*%
X88880009Y-8696671D03*
D17*
X88880010Y-11236672D03*
X88880010Y-13776672D03*
X88880010Y-16316672D03*
X88880010Y-18856672D03*
X88880010Y-21396672D03*
X88880010Y-23936672D03*
X88880010Y-26476672D03*
X88880010Y-29016672D03*
X88880010Y-31556672D03*
X88880010Y-34096672D03*
X88880010Y-36636672D03*
X104120010Y-36636672D03*
X104120010Y-34096672D03*
X104120010Y-31556672D03*
X104120010Y-29016672D03*
X104120010Y-26476672D03*
X104120010Y-23936672D03*
X104120010Y-21396672D03*
X104120010Y-18856672D03*
X104120010Y-16316672D03*
X104120010Y-13776672D03*
X104120010Y-11236672D03*
X104120010Y-8696672D03*
%TD*%
M02*
