M48
; DRILL file {KiCad (7.0.0-rc1-156-g4c5a344629)} date Tue Mar  7 17:49:34 2023
; FORMAT={-:-/ absolute / metric / decimal}
; #@! TF.CreationDate,2023-03-07T17:49:34+10:30
; #@! TF.GenerationSoftware,Kicad,Pcbnew,(7.0.0-rc1-156-g4c5a344629)
; #@! TF.FileFunction,Plated,1,2,PTH
FMAT,2
METRIC
; #@! TA.AperFunction,Plated,PTH,ComponentDrill
T1C0.400
; #@! TA.AperFunction,Plated,PTH,ComponentDrill
T2C2.200
%
G90
G05
T1
X103.92Y-62.09
X103.92Y-130.09
X104.403Y-60.923
X104.403Y-63.257
X104.403Y-128.923
X104.403Y-131.257
X105.57Y-60.44
X105.57Y-63.74
X105.57Y-128.44
X105.57Y-131.74
X106.737Y-60.923
X106.737Y-63.257
X106.737Y-128.923
X106.737Y-131.257
X107.22Y-62.09
X107.22Y-130.09
X175.92Y-62.09
X175.92Y-130.09
X176.403Y-60.923
X176.403Y-63.257
X176.403Y-128.923
X176.403Y-131.257
X177.57Y-60.44
X177.57Y-63.74
X177.57Y-128.44
X177.57Y-131.74
X178.737Y-60.923
X178.737Y-63.257
X178.737Y-128.923
X178.737Y-131.257
X179.22Y-62.09
X179.22Y-130.09
T2
X105.57Y-62.09
X105.57Y-130.09
X177.57Y-62.09
X177.57Y-130.09
T0
M30
